<svg id="Copy_copy" data-name="Copy copy" xmlns="http://www.w3.org/2000/svg" width="1280" height="492" viewBox="0 0 1280 492">
  <metadata><?xpacket begin="﻿" id="W5M0MpCehiHzreSzNTczkc9d"?>
<x:xmpmeta xmlns:x="adobe:ns:meta/" x:xmptk="Adobe XMP Core 5.6-c138 79.159824, 2016/09/14-01:09:01        ">
   <rdf:RDF xmlns:rdf="http://www.w3.org/1999/02/22-rdf-syntax-ns#">
      <rdf:Description rdf:about=""/>
   </rdf:RDF>
</x:xmpmeta>
                                                                                                    
                                                                                                    
                                                                                                    
                                                                                                    
                                                                                                    
                                                                                                    
                                                                                                    
                                                                                                    
                                                                                                    
                                                                                                    
                                                                                                    
                                                                                                    
                                                                                                    
                                                                                                    
                                                                                                    
                                                                                                    
                                                                                                    
                                                                                                    
                                                                                                    
                                                                                                    
                           
<?xpacket end="w"?></metadata>
<defs>
    <style>
      .cls-1 {
        fill: #fff;
      }

      .cls-1, .cls-2 {
        fill-rule: evenodd;
      }

      .cls-2 {
        fill: #84b1bc;
        opacity: 0.21;
      }
    </style>
  </defs>
  <path id="Lightweight_and_naturally_breathable_linen_is_essential_for_su" data-name="Lightweight and naturally breathable, linen is essential for su" class="cls-1" d="M647.134,320.864v-1.345h-4.481V309h-1.41v11.864h5.891Zm2.414-10.324a0.906,0.906,0,0,0,.66.267,0.893,0.893,0,0,0,.657-0.267,0.882,0.882,0,0,0,.267-0.648,0.912,0.912,0,0,0-.271-0.665,0.886,0.886,0,0,0-.653-0.275A0.931,0.931,0,0,0,649.548,310.54Zm1.309,10.324v-7.415h-1.281v7.415h1.281Zm8.532-1.7a2.268,2.268,0,0,1-1.779.717,2.308,2.308,0,0,1-1.827-.729,3.031,3.031,0,0,1-.644-2.074,2.824,2.824,0,0,1,.64-1.97,2.544,2.544,0,0,1,3.574.057,2.907,2.907,0,0,1,.68,2.01A2.867,2.867,0,0,1,659.389,319.166ZM660,313.449v1.378a2.9,2.9,0,0,0-1.1-1.228,3.1,3.1,0,0,0-1.621-.417,3.226,3.226,0,0,0-2.536,1.065,4.8,4.8,0,0,0,.028,5.766,3.3,3.3,0,0,0,2.573,1.086,2.94,2.94,0,0,0,1.564-.426,3.137,3.137,0,0,0,1.126-1.219V320.7a5.639,5.639,0,0,1-.073,1.045,1.9,1.9,0,0,1-.243.64,1.784,1.784,0,0,1-.822.734,3.12,3.12,0,0,1-1.3.247,2.574,2.574,0,0,1-1.629-.454,1.547,1.547,0,0,1-.575-1.288v-0.1h-1.426a2.764,2.764,0,0,0,.984,2.18,4.054,4.054,0,0,0,2.63.77,4.993,4.993,0,0,0,1.722-.275,3.213,3.213,0,0,0,1.268-.835,2.41,2.41,0,0,0,.535-0.916,6.342,6.342,0,0,0,.162-1.718v-7.285H660Zm5.919,7.415v-3.833a5.625,5.625,0,0,1,.1-1.3,1.8,1.8,0,0,1,.336-0.664,2.049,2.049,0,0,1,.774-0.588,2.534,2.534,0,0,1,1.033-.206,1.833,1.833,0,0,1,1.463.547,2.5,2.5,0,0,1,.474,1.673v4.368h1.3v-5.049a2.533,2.533,0,0,0-.738-1.936,2.863,2.863,0,0,0-2.05-.7,3.341,3.341,0,0,0-1.556.348,3.111,3.111,0,0,0-1.151,1.062V308.3h-1.239v12.561h1.256Zm9.014,0h1.3v-6.37h1.361v-1.045h-1.361v-2.99h-1.3v2.99h-1.361v1.045h1.361v6.37Zm9.274-7.682-2.253,5.324-1.977-5.057h-1.41l3.306,7.877,2.439-5.689,2.439,5.689,3.3-7.877h-1.427l-1.993,5.057-2.221-5.324h-0.2Zm8.715,3.136a2.167,2.167,0,0,1,2.252-2.042,2.316,2.316,0,0,1,1.609.53,2.132,2.132,0,0,1,.652,1.512h-4.513ZM698.8,317.1a4.1,4.1,0,0,0-.961-2.877,3.351,3.351,0,0,0-2.605-1.054,3.485,3.485,0,0,0-2.666,1.111,4.009,4.009,0,0,0-1.037,2.852,4.124,4.124,0,0,0,1.045,2.934,3.577,3.577,0,0,0,2.739,1.118,3.715,3.715,0,0,0,3.436-2.026l-0.964-.648a3.5,3.5,0,0,1-1.062,1.211,2.361,2.361,0,0,1-1.345.4,2.31,2.31,0,0,1-1.775-.733,2.715,2.715,0,0,1-.68-1.925v-0.113H698.8V317.1Zm2.778-6.556a0.907,0.907,0,0,0,.661.267,0.892,0.892,0,0,0,.656-0.267,0.883,0.883,0,0,0,.268-0.648,0.913,0.913,0,0,0-.272-0.665,0.884,0.884,0,0,0-.652-0.275A0.931,0.931,0,0,0,701.576,310.54Zm1.309,10.324v-7.415h-1.28v7.415h1.28Zm8.532-1.7a2.267,2.267,0,0,1-1.778.717,2.312,2.312,0,0,1-1.828-.729,3.036,3.036,0,0,1-.644-2.074,2.824,2.824,0,0,1,.64-1.97,2.544,2.544,0,0,1,3.574.057,2.9,2.9,0,0,1,.681,2.01A2.868,2.868,0,0,1,711.417,319.166Zm0.612-5.717v1.378a2.892,2.892,0,0,0-1.1-1.228,3.1,3.1,0,0,0-1.621-.417,3.226,3.226,0,0,0-2.536,1.065,4.8,4.8,0,0,0,.028,5.766,3.3,3.3,0,0,0,2.573,1.086,2.94,2.94,0,0,0,1.564-.426,3.14,3.14,0,0,0,1.127-1.219V320.7a5.728,5.728,0,0,1-.073,1.045,1.938,1.938,0,0,1-.243.64,1.791,1.791,0,0,1-.823.734,3.117,3.117,0,0,1-1.3.247,2.569,2.569,0,0,1-1.628-.454,1.545,1.545,0,0,1-.576-1.288v-0.1h-1.426a2.761,2.761,0,0,0,.985,2.18,4.049,4.049,0,0,0,2.629.77,4.993,4.993,0,0,0,1.722-.275,3.206,3.206,0,0,0,1.268-.835,2.41,2.41,0,0,0,.535-0.916,6.342,6.342,0,0,0,.162-1.718v-7.285h-1.264Zm5.919,7.415v-3.833a5.684,5.684,0,0,1,.1-1.3,1.8,1.8,0,0,1,.337-0.664,2.042,2.042,0,0,1,.774-0.588,2.531,2.531,0,0,1,1.033-.206,1.831,1.831,0,0,1,1.462.547,2.5,2.5,0,0,1,.474,1.673v4.368h1.3v-5.049a2.536,2.536,0,0,0-.737-1.936,2.866,2.866,0,0,0-2.051-.7,3.337,3.337,0,0,0-1.555.348,3.1,3.1,0,0,0-1.151,1.062V308.3h-1.24v12.561h1.256Zm9.014,0h1.3v-6.37h1.361v-1.045h-1.361v-2.99h-1.3v2.99H725.6v1.045h1.361v6.37Zm15.683-1.657a2.283,2.283,0,0,1-1.778.709,2.309,2.309,0,0,1-1.828-.73,3.034,3.034,0,0,1-.644-2.074,2.822,2.822,0,0,1,.64-1.969,2.535,2.535,0,0,1,3.57.061,2.919,2.919,0,0,1,.685,2.021A2.839,2.839,0,0,1,742.645,319.207Zm0.612-5.758v1.394a3.013,3.013,0,0,0-1.106-1.244,3.048,3.048,0,0,0-1.617-.417A3.2,3.2,0,0,0,738,314.264a4.263,4.263,0,0,0-.948,2.913,4.208,4.208,0,0,0,.976,2.9,3.278,3.278,0,0,0,2.573,1.1,2.9,2.9,0,0,0,1.552-.426,3.243,3.243,0,0,0,1.139-1.235v1.345h1.231v-7.415h-1.264Zm5.887,7.415v-3.833a5.625,5.625,0,0,1,.1-1.3,1.783,1.783,0,0,1,.336-0.664,2.042,2.042,0,0,1,.774-0.588,2.534,2.534,0,0,1,1.033-.206,1.833,1.833,0,0,1,1.463.547,2.5,2.5,0,0,1,.474,1.673v4.368h1.3v-5.049a2.533,2.533,0,0,0-.738-1.936,2.863,2.863,0,0,0-2.05-.7,3.338,3.338,0,0,0-1.556.348,3.111,3.111,0,0,0-1.151,1.062v-1.143h-1.239v7.415h1.256Zm13.832-1.645a2.343,2.343,0,0,1-1.828.729,2.166,2.166,0,0,1-1.766-.774,3.265,3.265,0,0,1-.64-2.143,2.707,2.707,0,0,1,.632-1.9,2.263,2.263,0,0,1,1.758-.689,2.335,2.335,0,0,1,1.815.757,2.858,2.858,0,0,1,.689,2A2.911,2.911,0,0,1,762.976,319.219ZM763.6,308.3v6.54a2.847,2.847,0,0,0-2.707-1.661,3.221,3.221,0,0,0-2.544,1.086,4.853,4.853,0,0,0,.02,5.814,3.276,3.276,0,0,0,2.573,1.1,2.9,2.9,0,0,0,1.556-.43,3.216,3.216,0,0,0,1.134-1.231v1.345h1.232V308.3H763.6ZM642.369,346.68v-3.833a5.667,5.667,0,0,1,.1-1.3,1.8,1.8,0,0,1,.337-0.665,2.029,2.029,0,0,1,.774-0.587,2.515,2.515,0,0,1,1.033-.207,1.831,1.831,0,0,1,1.462.547,2.5,2.5,0,0,1,.474,1.673v4.368h1.3v-5.048a2.539,2.539,0,0,0-.737-1.937,2.866,2.866,0,0,0-2.051-.7,3.337,3.337,0,0,0-1.555.348,3.12,3.12,0,0,0-1.151,1.062v-1.143h-1.24v7.415h1.256Zm13.848-1.657a2.279,2.279,0,0,1-1.778.709,2.312,2.312,0,0,1-1.828-.729,3.038,3.038,0,0,1-.644-2.075,2.822,2.822,0,0,1,.64-1.969,2.535,2.535,0,0,1,3.57.061,2.92,2.92,0,0,1,.685,2.022A2.838,2.838,0,0,1,656.217,345.023Zm0.612-5.758v1.394a3.019,3.019,0,0,0-1.106-1.244,3.051,3.051,0,0,0-1.617-.417,3.2,3.2,0,0,0-2.536,1.082,4.263,4.263,0,0,0-.948,2.913,4.208,4.208,0,0,0,.976,2.905,3.278,3.278,0,0,0,2.573,1.1,2.911,2.911,0,0,0,1.552-.425,3.254,3.254,0,0,0,1.139-1.236v1.345h1.231v-7.415h-1.264Zm4.825,7.415h1.3v-6.369h1.361v-1.046h-1.361v-2.99h-1.3v2.99h-1.361v1.046h1.361v6.369Zm4.792-7.415v4.328a3.458,3.458,0,0,0,.859,2.536,4.1,4.1,0,0,0,5.041,0,3.456,3.456,0,0,0,.859-2.54v-4.328h-1.3v3.647a3.932,3.932,0,0,1-.466,2.241,2.332,2.332,0,0,1-3.193-.008,3.887,3.887,0,0,1-.474-2.233v-3.647h-1.329Zm11.316,7.415v-3.614a3.856,3.856,0,0,1,.5-2.184,1.712,1.712,0,0,1,1.507-.725,2.053,2.053,0,0,1,.373.036,3.234,3.234,0,0,1,.413.11l0.421-1.143a2.609,2.609,0,0,0-.421-0.109,2.5,2.5,0,0,0-.438-0.037,2.339,2.339,0,0,0-1.4.413,3.922,3.922,0,0,0-1.086,1.378v-1.54h-1.127v7.415h1.256Zm10.413-1.657a2.283,2.283,0,0,1-1.779.709,2.308,2.308,0,0,1-1.827-.729,3.034,3.034,0,0,1-.645-2.075,2.826,2.826,0,0,1,.64-1.969,2.535,2.535,0,0,1,3.57.061,2.916,2.916,0,0,1,.685,2.022A2.842,2.842,0,0,1,688.175,345.023Zm0.611-5.758v1.394a3.012,3.012,0,0,0-1.106-1.244,3.045,3.045,0,0,0-1.616-.417,3.206,3.206,0,0,0-2.537,1.082,4.263,4.263,0,0,0-.948,2.913,4.2,4.2,0,0,0,.977,2.905,3.276,3.276,0,0,0,2.572,1.1,2.911,2.911,0,0,0,1.552-.425,3.246,3.246,0,0,0,1.139-1.236v1.345h1.232v-7.415h-1.265Zm5.992,7.415V334.12h-1.3v12.56h1.3Zm4.849,0V334.12h-1.3v12.56h1.3Zm4.615,3.614,4.975-11.029h-1.394l-2.285,5.324-2.155-5.324h-1.467l2.909,6.686-2.01,4.343h1.427Zm14.633-9.282a2.372,2.372,0,0,1,1.831-.758,2.259,2.259,0,0,1,1.751.689,2.712,2.712,0,0,1,.632,1.9,3.258,3.258,0,0,1-.644,2.144,2.19,2.19,0,0,1-1.779.773,2.342,2.342,0,0,1-1.823-.729,2.9,2.9,0,0,1-.665-2.026A2.832,2.832,0,0,1,718.875,341.012Zm-1.9,5.668h1.207v-1.345a3.246,3.246,0,0,0,1.143,1.228,2.926,2.926,0,0,0,1.564.433,3.276,3.276,0,0,0,2.577-1.1,4.873,4.873,0,0,0,.02-5.814A3.22,3.22,0,0,0,720.933,339a3,3,0,0,0-1.6.417,3.076,3.076,0,0,0-1.11,1.244V334.12h-1.256v12.56Zm11.591,0v-3.614a3.848,3.848,0,0,1,.5-2.184,1.711,1.711,0,0,1,1.507-.725,2.053,2.053,0,0,1,.373.036,3.234,3.234,0,0,1,.413.11l0.421-1.143a2.609,2.609,0,0,0-.421-0.109,2.505,2.505,0,0,0-.438-0.037,2.344,2.344,0,0,0-1.4.413,3.945,3.945,0,0,0-1.086,1.378v-1.54h-1.126v7.415h1.256Zm6.13-4.546a2.167,2.167,0,0,1,2.252-2.042,2.312,2.312,0,0,1,1.609.531,2.13,2.13,0,0,1,.652,1.511h-4.513Zm5.875,0.778a4.107,4.107,0,0,0-.961-2.877A3.35,3.35,0,0,0,737,338.982a3.486,3.486,0,0,0-2.666,1.11,4.009,4.009,0,0,0-1.037,2.852,4.123,4.123,0,0,0,1.045,2.934A3.577,3.577,0,0,0,737.082,347a3.71,3.71,0,0,0,3.436-2.026l-0.964-.648a3.515,3.515,0,0,1-1.062,1.212,2.368,2.368,0,0,1-1.345.4,2.311,2.311,0,0,1-1.775-.734,2.718,2.718,0,0,1-.68-1.924v-0.114h5.875v-0.251Zm7.77,2.111a2.279,2.279,0,0,1-1.778.709,2.312,2.312,0,0,1-1.828-.729,3.038,3.038,0,0,1-.644-2.075,2.822,2.822,0,0,1,.64-1.969,2.535,2.535,0,0,1,3.57.061,2.92,2.92,0,0,1,.684,2.022A2.837,2.837,0,0,1,748.337,345.023Zm0.612-5.758v1.394a3.019,3.019,0,0,0-1.106-1.244,3.051,3.051,0,0,0-1.617-.417,3.2,3.2,0,0,0-2.536,1.082,4.263,4.263,0,0,0-.948,2.913,4.208,4.208,0,0,0,.976,2.905,3.278,3.278,0,0,0,2.573,1.1,2.911,2.911,0,0,0,1.552-.425,3.244,3.244,0,0,0,1.138-1.236v1.345h1.232v-7.415h-1.264Zm4.825,7.415h1.3v-6.369h1.361v-1.046h-1.361v-2.99h-1.3v2.99h-1.361v1.046h1.361v6.369Zm6.186,0v-3.833a5.594,5.594,0,0,1,.1-1.3,1.787,1.787,0,0,1,.336-0.665,2.029,2.029,0,0,1,.774-0.587,2.515,2.515,0,0,1,1.033-.207,1.833,1.833,0,0,1,1.463.547,2.5,2.5,0,0,1,.474,1.673v4.368h1.3v-5.048a2.539,2.539,0,0,0-.737-1.937,2.865,2.865,0,0,0-2.05-.7,3.338,3.338,0,0,0-1.556.348,3.12,3.12,0,0,0-1.151,1.062V334.12H758.7v12.56h1.256Zm13.848-1.657a2.279,2.279,0,0,1-1.778.709A2.312,2.312,0,0,1,770.2,345a3.038,3.038,0,0,1-.644-2.075,2.822,2.822,0,0,1,.64-1.969,2.535,2.535,0,0,1,3.57.061,2.92,2.92,0,0,1,.685,2.022A2.838,2.838,0,0,1,773.808,345.023Zm0.612-5.758v1.394a3.012,3.012,0,0,0-1.106-1.244A3.046,3.046,0,0,0,771.7,339a3.205,3.205,0,0,0-2.536,1.082,4.263,4.263,0,0,0-.948,2.913,4.208,4.208,0,0,0,.976,2.905,3.278,3.278,0,0,0,2.573,1.1,2.911,2.911,0,0,0,1.552-.425,3.246,3.246,0,0,0,1.139-1.236v1.345h1.231v-7.415H774.42Zm6.535,1.747a2.372,2.372,0,0,1,1.831-.758,2.259,2.259,0,0,1,1.751.689,2.712,2.712,0,0,1,.632,1.9,3.258,3.258,0,0,1-.644,2.144,2.19,2.19,0,0,1-1.779.773,2.342,2.342,0,0,1-1.823-.729,2.9,2.9,0,0,1-.665-2.026A2.832,2.832,0,0,1,780.955,341.012Zm-1.9,5.668h1.207v-1.345a3.246,3.246,0,0,0,1.143,1.228,2.926,2.926,0,0,0,1.564.433,3.276,3.276,0,0,0,2.577-1.1,4.873,4.873,0,0,0,.02-5.814A3.22,3.22,0,0,0,783.013,339a3,3,0,0,0-1.6.417,3.076,3.076,0,0,0-1.11,1.244V334.12h-1.256v12.56Zm11.68,0V334.12h-1.3v12.56h1.3Zm4.234-4.546a2.167,2.167,0,0,1,2.252-2.042,2.312,2.312,0,0,1,1.609.531,2.13,2.13,0,0,1,.652,1.511h-4.513Zm5.875,0.778a4.107,4.107,0,0,0-.961-2.877,3.35,3.35,0,0,0-2.605-1.053,3.485,3.485,0,0,0-2.666,1.11,4.009,4.009,0,0,0-1.037,2.852,4.123,4.123,0,0,0,1.045,2.934A3.577,3.577,0,0,0,797.355,347a3.71,3.71,0,0,0,3.436-2.026l-0.964-.648a3.515,3.515,0,0,1-1.062,1.212,2.368,2.368,0,0,1-1.345.4,2.311,2.311,0,0,1-1.775-.734,2.714,2.714,0,0,1-.68-1.924v-0.114h5.875v-0.251ZM804.2,349.4l1.985-4.3-1.377-.478-1.54,4.416ZM642.474,372.5v-12.56h-1.3V372.5h1.3ZM646,362.172a0.9,0.9,0,0,0,.66.268,0.889,0.889,0,0,0,.656-0.268,0.879,0.879,0,0,0,.268-0.648,0.911,0.911,0,0,0-.272-0.664,0.881,0.881,0,0,0-.652-0.276,0.9,0.9,0,0,0-.66.272A0.932,0.932,0,0,0,646,362.172Zm1.308,10.324v-7.414h-1.28V372.5h1.28Zm4.76,0v-3.833a5.6,5.6,0,0,1,.1-1.3,1.787,1.787,0,0,1,.336-0.665,2.039,2.039,0,0,1,.774-0.587,2.518,2.518,0,0,1,1.033-.207,1.836,1.836,0,0,1,1.463.547,2.507,2.507,0,0,1,.474,1.674V372.5h1.3v-5.048a2.535,2.535,0,0,0-.737-1.937,2.869,2.869,0,0,0-2.05-.7,3.326,3.326,0,0,0-1.556.349,3.109,3.109,0,0,0-1.151,1.061v-1.142h-1.24V372.5h1.256Zm9.566-4.546a2.167,2.167,0,0,1,2.253-2.042,2.309,2.309,0,0,1,1.608.531,2.137,2.137,0,0,1,.653,1.511h-4.514Zm5.875,0.778a4.113,4.113,0,0,0-.96-2.877,3.352,3.352,0,0,0-2.606-1.053,3.488,3.488,0,0,0-2.666,1.11,4.014,4.014,0,0,0-1.037,2.853,4.124,4.124,0,0,0,1.045,2.933,3.574,3.574,0,0,0,2.739,1.118,3.712,3.712,0,0,0,3.436-2.025l-0.964-.649a3.506,3.506,0,0,1-1.062,1.212,2.366,2.366,0,0,1-1.345.4,2.307,2.307,0,0,1-1.774-.733,2.717,2.717,0,0,1-.681-1.925v-0.114h5.875v-0.251Zm4,3.768v-3.833a5.6,5.6,0,0,1,.1-1.3,1.787,1.787,0,0,1,.336-0.665,2.039,2.039,0,0,1,.774-0.587,2.515,2.515,0,0,1,1.033-.207,1.836,1.836,0,0,1,1.463.547,2.507,2.507,0,0,1,.474,1.674V372.5h1.3v-5.048a2.539,2.539,0,0,0-.737-1.937,2.869,2.869,0,0,0-2.05-.7,3.326,3.326,0,0,0-1.556.349,3.109,3.109,0,0,0-1.151,1.061v-1.142h-1.24V372.5h1.256Zm14.581-10.324a0.9,0.9,0,0,0,.661.268,0.913,0.913,0,0,0,.923-0.916,0.91,0.91,0,0,0-.271-0.664,0.883,0.883,0,0,0-.652-0.276,0.9,0.9,0,0,0-.661.272A0.934,0.934,0,0,0,686.087,362.172ZM687.4,372.5v-7.414h-1.281V372.5H687.4Zm3.881-.073a3.676,3.676,0,0,0,1.762.389A2.873,2.873,0,0,0,695,372.16a2.152,2.152,0,0,0,.75-1.706,1.834,1.834,0,0,0-.474-1.317,4.074,4.074,0,0,0-1.682-.887c-0.108-.032-0.254-0.078-0.437-0.138q-1.476-.462-1.475-1.142a1.017,1.017,0,0,1,.352-0.8,1.325,1.325,0,0,1,.912-0.312,1.892,1.892,0,0,1,1.025.275,1.736,1.736,0,0,1,.669.786l1.029-.632a2.218,2.218,0,0,0-.989-1.09,3.344,3.344,0,0,0-1.653-.385,2.814,2.814,0,0,0-1.9.624,2.026,2.026,0,0,0-.73,1.613q0,1.4,2.707,2.334l0.211,0.073a2.418,2.418,0,0,1,.9.478,0.872,0.872,0,0,1,.264.648,0.988,0.988,0,0,1-.385.81,1.563,1.563,0,0,1-1.009.308,2.032,2.032,0,0,1-1.11-.3,2.218,2.218,0,0,1-.778-0.887l-1.086.729A2.869,2.869,0,0,0,691.277,372.423Zm13.681-4.473a2.167,2.167,0,0,1,2.253-2.042,2.309,2.309,0,0,1,1.608.531,2.137,2.137,0,0,1,.653,1.511h-4.514Zm5.875,0.778a4.113,4.113,0,0,0-.96-2.877,3.352,3.352,0,0,0-2.606-1.053,3.488,3.488,0,0,0-2.666,1.11,4.014,4.014,0,0,0-1.037,2.853,4.124,4.124,0,0,0,1.045,2.933,3.574,3.574,0,0,0,2.739,1.118,3.712,3.712,0,0,0,3.436-2.025l-0.964-.649a3.514,3.514,0,0,1-1.061,1.212,2.372,2.372,0,0,1-1.346.4,2.307,2.307,0,0,1-1.774-.733,2.717,2.717,0,0,1-.681-1.925v-0.114h5.875v-0.251Zm3.119,3.695a3.68,3.68,0,0,0,1.763.389,2.873,2.873,0,0,0,1.957-.652,2.155,2.155,0,0,0,.749-1.706,1.834,1.834,0,0,0-.474-1.317,4.069,4.069,0,0,0-1.681-.887q-0.162-.048-0.438-0.138-1.474-.462-1.475-1.142a1.018,1.018,0,0,1,.353-0.8,1.324,1.324,0,0,1,.911-0.312,1.9,1.9,0,0,1,1.026.275,1.728,1.728,0,0,1,.668.786l1.029-.632a2.216,2.216,0,0,0-.988-1.09,3.351,3.351,0,0,0-1.654-.385,2.814,2.814,0,0,0-1.9.624,2.025,2.025,0,0,0-.729,1.613q0,1.4,2.706,2.334l0.211,0.073a2.424,2.424,0,0,1,.9.478,0.874,0.874,0,0,1,.263.648,0.985,0.985,0,0,1-.385.81,1.562,1.562,0,0,1-1.009.308,2.032,2.032,0,0,1-1.11-.3,2.226,2.226,0,0,1-.778-0.887l-1.086.729A2.881,2.881,0,0,0,713.952,372.423Zm7.588,0a3.68,3.68,0,0,0,1.763.389,2.873,2.873,0,0,0,1.957-.652,2.155,2.155,0,0,0,.749-1.706,1.834,1.834,0,0,0-.474-1.317,4.069,4.069,0,0,0-1.681-.887q-0.162-.048-0.438-0.138-1.475-.462-1.475-1.142a1.018,1.018,0,0,1,.353-0.8,1.325,1.325,0,0,1,.912-0.312,1.894,1.894,0,0,1,1.025.275,1.728,1.728,0,0,1,.668.786l1.029-.632a2.216,2.216,0,0,0-.988-1.09,3.347,3.347,0,0,0-1.653-.385,2.818,2.818,0,0,0-1.9.624,2.025,2.025,0,0,0-.729,1.613q0,1.4,2.707,2.334l0.21,0.073a2.424,2.424,0,0,1,.9.478,0.874,0.874,0,0,1,.263.648,0.985,0.985,0,0,1-.385.81,1.562,1.562,0,0,1-1.009.308,2.037,2.037,0,0,1-1.11-.3,2.233,2.233,0,0,1-.778-0.887l-1.086.729A2.881,2.881,0,0,0,721.54,372.423Zm7.957-4.473a2.167,2.167,0,0,1,2.253-2.042,2.312,2.312,0,0,1,1.609.531,2.136,2.136,0,0,1,.652,1.511H729.5Zm5.875,0.778a4.113,4.113,0,0,0-.96-2.877,3.351,3.351,0,0,0-2.605-1.053,3.485,3.485,0,0,0-2.666,1.11,4.01,4.01,0,0,0-1.038,2.853,4.121,4.121,0,0,0,1.046,2.933,3.574,3.574,0,0,0,2.739,1.118,3.715,3.715,0,0,0,3.436-2.025l-0.965-.649a3.5,3.5,0,0,1-1.061,1.212,2.368,2.368,0,0,1-1.345.4,2.309,2.309,0,0,1-1.775-.733,2.717,2.717,0,0,1-.681-1.925v-0.114h5.875v-0.251Zm4,3.768v-3.833a5.615,5.615,0,0,1,.1-1.3,1.787,1.787,0,0,1,.336-0.665,2.039,2.039,0,0,1,.774-0.587,2.518,2.518,0,0,1,1.033-.207,1.836,1.836,0,0,1,1.463.547,2.507,2.507,0,0,1,.474,1.674V372.5h1.3v-5.048a2.536,2.536,0,0,0-.738-1.937,2.868,2.868,0,0,0-2.05-.7,3.329,3.329,0,0,0-1.556.349,3.116,3.116,0,0,0-1.151,1.061v-1.142h-1.239V372.5h1.256Zm9.014,0h1.3v-6.369h1.361v-1.045h-1.361v-2.991h-1.3v2.991h-1.361v1.045h1.361V372.5Zm4.967-10.324a0.9,0.9,0,0,0,.66.268,0.892,0.892,0,0,0,.657-0.268,0.882,0.882,0,0,0,.267-0.648,0.914,0.914,0,0,0-.271-0.664,0.885,0.885,0,0,0-.653-0.276,0.9,0.9,0,0,0-.66.272A0.932,0.932,0,0,0,753.352,362.172ZM754.66,372.5v-7.414h-1.28V372.5h1.28Zm8.533-1.657a2.283,2.283,0,0,1-1.779.709,2.308,2.308,0,0,1-1.827-.729,3.032,3.032,0,0,1-.645-2.075,2.824,2.824,0,0,1,.641-1.969,2.533,2.533,0,0,1,3.569.061,2.919,2.919,0,0,1,.685,2.022A2.84,2.84,0,0,1,763.193,370.839Zm0.612-5.757v1.393a3,3,0,0,0-1.107-1.243,3.036,3.036,0,0,0-1.616-.418,3.206,3.206,0,0,0-2.537,1.082,4.263,4.263,0,0,0-.948,2.913,4.209,4.209,0,0,0,.977,2.9,3.273,3.273,0,0,0,2.573,1.1,2.9,2.9,0,0,0,1.551-.425,3.246,3.246,0,0,0,1.139-1.236V372.5h1.232v-7.414h-1.264ZM769.8,372.5v-12.56h-1.3V372.5h1.3Zm10.833,0v-6.369h1.945v-1.045H780.6V363.1a4.323,4.323,0,0,1,.211-1.75,0.817,0.817,0,0,1,.769-0.357,2,2,0,0,1,.507.065,2.069,2.069,0,0,1,.49.2v-1.313a2.818,2.818,0,0,0-.523-0.13,3.868,3.868,0,0,0-.571-0.04,1.92,1.92,0,0,0-1.673.652,4.645,4.645,0,0,0-.466,2.5v2.148h-1.426v1.045h1.426V372.5h1.288Zm5.534-5.676a2.546,2.546,0,0,1,1.909-.815,2.515,2.515,0,0,1,1.888.815,2.933,2.933,0,0,1,0,3.979,2.514,2.514,0,0,1-1.888.814,2.549,2.549,0,0,1-1.9-.814A2.916,2.916,0,0,1,786.163,366.82Zm-1.827,3.521a4.054,4.054,0,0,0,2.184,2.168,4.024,4.024,0,0,0,1.552.3,3.911,3.911,0,0,0,1.527-.307,4.189,4.189,0,0,0,1.325-.892,3.819,3.819,0,0,0,.875-1.276,3.917,3.917,0,0,0,.3-1.528,3.974,3.974,0,0,0-.3-1.535,3.8,3.8,0,0,0-.875-1.285,4.158,4.158,0,0,0-1.317-.875,3.974,3.974,0,0,0-1.535-.3,4.1,4.1,0,0,0-1.556.3,3.966,3.966,0,0,0-1.3.863,3.876,3.876,0,0,0-.875,1.293,4,4,0,0,0-.3,1.543A3.908,3.908,0,0,0,784.336,370.341Zm11.842,2.155v-3.614a3.856,3.856,0,0,1,.5-2.184,1.712,1.712,0,0,1,1.507-.725,2.053,2.053,0,0,1,.373.036,3.191,3.191,0,0,1,.413.11l0.422-1.143a2.729,2.729,0,0,0-.422-0.109,2.585,2.585,0,0,0-.437-0.037,2.336,2.336,0,0,0-1.4.414,3.908,3.908,0,0,0-1.086,1.377v-1.539h-1.127V372.5h1.256ZM641.49,398.24a3.688,3.688,0,0,0,1.762.389,2.872,2.872,0,0,0,1.957-.653,2.15,2.15,0,0,0,.75-1.7,1.831,1.831,0,0,0-.474-1.317,4.074,4.074,0,0,0-1.682-.888c-0.108-.032-0.254-0.078-0.437-0.137q-1.476-.462-1.475-1.143a1.017,1.017,0,0,1,.352-0.8,1.325,1.325,0,0,1,.912-0.312,1.9,1.9,0,0,1,1.025.275,1.73,1.73,0,0,1,.669.786l1.029-.632a2.218,2.218,0,0,0-.989-1.09,3.344,3.344,0,0,0-1.653-.385,2.819,2.819,0,0,0-1.9.624,2.027,2.027,0,0,0-.729,1.613q0,1.4,2.706,2.334l0.211,0.073a2.424,2.424,0,0,1,.9.478,0.872,0.872,0,0,1,.264.648,0.991,0.991,0,0,1-.385.811,1.569,1.569,0,0,1-1.009.308,2.04,2.04,0,0,1-1.11-.3,2.222,2.222,0,0,1-.778-0.888l-1.086.73A2.887,2.887,0,0,0,641.49,398.24Zm7.073-7.342v4.327a3.461,3.461,0,0,0,.859,2.537,3.387,3.387,0,0,0,2.513.867,3.421,3.421,0,0,0,2.528-.863,3.458,3.458,0,0,0,.859-2.541V390.9h-1.3v3.647a3.926,3.926,0,0,1-.466,2.24,2.332,2.332,0,0,1-3.193-.008,3.881,3.881,0,0,1-.474-2.232V390.9h-1.329Zm21.624,7.415v-5.049a2.417,2.417,0,0,0-2.634-2.634,3,3,0,0,0-1.511.373,3.262,3.262,0,0,0-1.13,1.135,2.409,2.409,0,0,0-.957-1.123,2.9,2.9,0,0,0-1.531-.385,3.039,3.039,0,0,0-1.475.349,3.072,3.072,0,0,0-1.1,1.061V390.9h-1.24v7.415h1.224V394.48a6.189,6.189,0,0,1,.093-1.305,1.823,1.823,0,0,1,.3-0.656,2.026,2.026,0,0,1,.741-0.588,2.218,2.218,0,0,1,.952-0.207,1.709,1.709,0,0,1,1.394.547,2.584,2.584,0,0,1,.454,1.674v4.368h1.224V394.48a5.9,5.9,0,0,1,.1-1.281,1.876,1.876,0,0,1,.316-0.68,2.041,2.041,0,0,1,.733-0.588,2.163,2.163,0,0,1,.944-0.207,1.709,1.709,0,0,1,1.394.547,2.584,2.584,0,0,1,.454,1.674v4.368h1.256Zm14.906,0v-5.049a2.417,2.417,0,0,0-2.634-2.634,3,3,0,0,0-1.511.373,3.272,3.272,0,0,0-1.131,1.135,2.4,2.4,0,0,0-.956-1.123,2.9,2.9,0,0,0-1.531-.385,3.036,3.036,0,0,0-1.475.349,3.072,3.072,0,0,0-1.1,1.061V390.9h-1.24v7.415h1.223V394.48a6.1,6.1,0,0,1,.094-1.305,1.839,1.839,0,0,1,.3-0.656,2.021,2.021,0,0,1,.742-0.588,2.214,2.214,0,0,1,.952-0.207,1.71,1.71,0,0,1,1.394.547,2.59,2.59,0,0,1,.454,1.674v4.368H679.9V394.48a5.882,5.882,0,0,1,.1-1.281,1.86,1.86,0,0,1,.316-0.68,2.033,2.033,0,0,1,.733-0.588,2.163,2.163,0,0,1,.944-0.207,1.71,1.71,0,0,1,1.394.547,2.59,2.59,0,0,1,.454,1.674v4.368h1.256Zm4.071-4.546a2.168,2.168,0,0,1,2.253-2.043,2.307,2.307,0,0,1,1.608.531,2.137,2.137,0,0,1,.653,1.512h-4.514Zm5.875,0.778a4.109,4.109,0,0,0-.96-2.877,3.352,3.352,0,0,0-2.6-1.054,3.488,3.488,0,0,0-2.667,1.11,4.015,4.015,0,0,0-1.037,2.853,4.121,4.121,0,0,0,1.046,2.933,3.571,3.571,0,0,0,2.739,1.119,3.718,3.718,0,0,0,3.436-2.026l-0.965-.648a3.51,3.51,0,0,1-1.061,1.211,2.372,2.372,0,0,1-1.346.4,2.308,2.308,0,0,1-1.774-.733,2.717,2.717,0,0,1-.681-1.925V394.8h5.875v-0.251Zm4.015,3.768V394.7a3.851,3.851,0,0,1,.5-2.183,1.711,1.711,0,0,1,1.507-.726,1.971,1.971,0,0,1,.373.037,3.138,3.138,0,0,1,.413.109l0.422-1.142a2.625,2.625,0,0,0-.422-0.11,2.586,2.586,0,0,0-.437-0.036,2.335,2.335,0,0,0-1.4.413,3.913,3.913,0,0,0-1.086,1.378V390.9H697.8v7.415h1.256Zm4.33,2.722,1.986-4.3-1.378-.478-1.54,4.417Zm11.028-2.722h1.3v-6.37h1.362V390.9h-1.362v-2.99h-1.3v2.99H713.05v1.045h1.362v6.37Zm6.457-5.677a2.547,2.547,0,0,1,1.909-.814,2.514,2.514,0,0,1,1.888.814,2.933,2.933,0,0,1,0,3.979,2.514,2.514,0,0,1-1.888.814,2.549,2.549,0,0,1-1.9-.814A2.916,2.916,0,0,1,720.869,392.636Zm-1.827,3.521a4.045,4.045,0,0,0,2.184,2.168,4.024,4.024,0,0,0,1.552.3,3.912,3.912,0,0,0,1.527-.308,4.173,4.173,0,0,0,1.325-.892,3.809,3.809,0,0,0,.875-1.276,3.916,3.916,0,0,0,.3-1.527,3.975,3.975,0,0,0-.3-1.536,3.8,3.8,0,0,0-.875-1.285,4.158,4.158,0,0,0-1.317-.875,3.974,3.974,0,0,0-1.535-.3,4.1,4.1,0,0,0-1.556.3,3.992,3.992,0,0,0-1.3.863,3.891,3.891,0,0,0-.875,1.293,4,4,0,0,0-.3,1.544A3.907,3.907,0,0,0,719.042,396.157Zm12.1-3.521a2.543,2.543,0,0,1,1.908-.814,2.512,2.512,0,0,1,1.888.814,2.933,2.933,0,0,1,0,3.979,2.512,2.512,0,0,1-1.888.814,2.548,2.548,0,0,1-1.9-.814A2.916,2.916,0,0,1,731.14,392.636Zm-1.828,3.521a4.054,4.054,0,0,0,2.184,2.168,4.028,4.028,0,0,0,1.552.3,3.913,3.913,0,0,0,1.528-.308,4.184,4.184,0,0,0,1.325-.892,3.823,3.823,0,0,0,.875-1.276,3.916,3.916,0,0,0,.3-1.527,3.975,3.975,0,0,0-.3-1.536,3.809,3.809,0,0,0-.875-1.285,4.181,4.181,0,0,0-1.317-.875,3.982,3.982,0,0,0-1.536-.3,4.107,4.107,0,0,0-1.556.3,3.977,3.977,0,0,0-1.3.863,3.879,3.879,0,0,0-.876,1.293,4.015,4.015,0,0,0-.3,1.544A3.924,3.924,0,0,0,729.312,396.157Zm11.029,2.03a0.944,0.944,0,0,0,.684.272,0.969,0.969,0,0,0,.7-0.272,0.89,0.89,0,0,0,.284-0.668,0.916,0.916,0,0,0-.288-0.685,0.955,0.955,0,0,0-.693-0.28,0.97,0.97,0,0,0-.964.965A0.893,0.893,0,0,0,740.341,398.187Z"/>
  <path id="Shape_2_copy" data-name="Shape 2 copy" class="cls-1" d="M401,45V44H690v1H401Z"/>
  <path id="shop_the_lorem_ipsum_dolor_sit_amet_consectetur_adipisicing_el" data-name="shop the lorem ipsum dolor sit amet, consectetur adipisicing el" class="cls-1" d="M401.057,38.353a4.607,4.607,0,0,0,1.415.955,4.225,4.225,0,0,0,1.632.3,3.38,3.38,0,0,0,2.39-.829,2.846,2.846,0,0,0,.9-2.194,2.885,2.885,0,0,0-.159-0.981,2.088,2.088,0,0,0-.462-0.759,4.382,4.382,0,0,0-1.881-.85l-0.106-.029a2.5,2.5,0,0,1-.893-0.369,0.636,0.636,0,0,1-.232-0.516,0.625,0.625,0,0,1,.264-0.518,1.1,1.1,0,0,1,.685-0.2,2.167,2.167,0,0,1,.83.173,3.08,3.08,0,0,1,.817.513l0.732-1.682a4.35,4.35,0,0,0-1.2-.577,4.663,4.663,0,0,0-1.344-.19,2.986,2.986,0,0,0-2.136.776,2.633,2.633,0,0,0-.823,2.007A2.07,2.07,0,0,0,402,34.879a3.849,3.849,0,0,0,1.781.885,3.308,3.308,0,0,1,1.181.478,0.835,0.835,0,0,1,.261.659,0.8,0.8,0,0,1-.3.639,1.161,1.161,0,0,1-.771.252,2,2,0,0,1-1.01-.293,4.248,4.248,0,0,1-1.029-.885Zm13.584,1.031V35.893h3.117v3.492H420.1V30.807h-2.344v3.334h-3.117V30.807H412.3v8.578h2.338Zm19.347-6.006A4.411,4.411,0,0,0,433,31.932a4.544,4.544,0,0,0-1.491-.976,4.7,4.7,0,0,0-3.522,0,4.482,4.482,0,0,0-1.479.976,4.341,4.341,0,0,0-1,1.45,4.534,4.534,0,0,0,0,3.46,4.332,4.332,0,0,0,1,1.453,4.482,4.482,0,0,0,1.479.976,4.672,4.672,0,0,0,3.513,0,4.689,4.689,0,0,0,1.5-.976A4.5,4.5,0,0,0,433.988,33.379Zm-5.856,3.545a2.9,2.9,0,0,1,.008-3.612,2.148,2.148,0,0,1,3.208,0,2.854,2.854,0,0,1,.009,3.6A2.182,2.182,0,0,1,428.132,36.924Zm13.455-.369h0.82a7.193,7.193,0,0,0,1.577-.123,2.28,2.28,0,0,0,.855-0.4,2.355,2.355,0,0,0,.727-0.958,3.451,3.451,0,0,0,.246-1.351,3.33,3.33,0,0,0-.249-1.309,2.537,2.537,0,0,0-.724-0.982,2.373,2.373,0,0,0-.984-0.481,9.808,9.808,0,0,0-2.016-.141H439.4v8.578h2.191v-2.83Zm0-3.9h0.469a2.14,2.14,0,0,1,1.16.228,0.868,0.868,0,0,1,.328.768,0.889,0.889,0,0,1-.334.788,2.175,2.175,0,0,1-1.178.231h-0.445V32.652Zm19.944,6.732V32.834h1.922V30.807h-6.182v2.027h1.922v6.551h2.338Zm9,0V35.893h3.117v3.492H476V30.807h-2.344v3.334h-3.117V30.807H468.2v8.578h2.338Zm16.139,0V37.463H483.7V36.016H486.5v-1.84H483.7V32.687h2.977V30.807h-5.256v8.578h5.256Zm17.747,0v-2h-2.907V30.807h-2.338v8.578h5.245Zm12.995-6.006a4.411,4.411,0,0,0-.987-1.447,4.544,4.544,0,0,0-1.491-.976,4.7,4.7,0,0,0-3.522,0,4.472,4.472,0,0,0-1.479.976,4.341,4.341,0,0,0-1,1.45,4.534,4.534,0,0,0,0,3.46,4.332,4.332,0,0,0,1,1.453,4.472,4.472,0,0,0,1.479.976,4.672,4.672,0,0,0,3.513,0,4.689,4.689,0,0,0,1.5-.976A4.5,4.5,0,0,0,517.415,33.379Zm-5.856,3.545a2.9,2.9,0,0,1,.008-3.612,2.148,2.148,0,0,1,3.208,0,2.854,2.854,0,0,1,.009,3.6A2.182,2.182,0,0,1,511.559,36.924Zm13.455,2.461V36.027l1.969,3.357h2.642l-2.337-3.457a2.385,2.385,0,0,0,1.426-.829,2.55,2.55,0,0,0,.49-1.62,2.857,2.857,0,0,0-.25-1.2,2.316,2.316,0,0,0-.711-0.9,2.559,2.559,0,0,0-.976-0.442,10.187,10.187,0,0,0-2-.132h-2.443v8.578h2.191Zm0-6.779h0.469a1.713,1.713,0,0,1,1.093.273,1.14,1.14,0,0,1,.325.917,0.938,0.938,0,0,1-.349.809,1.872,1.872,0,0,1-1.1.258h-0.434V32.605Zm14.358,6.779V37.463H536.4V36.016H539.2v-1.84H536.4V32.687h2.977V30.807h-5.256v8.578h5.256Zm13.666-8.578h-2.32l-1.307,4.412c-0.074.262-.133,0.485-0.175,0.671a4.019,4.019,0,0,0-.088.507,5.781,5.781,0,0,0-.229-1.014c-0.023-.07-0.039-0.121-0.047-0.152l-1.295-4.424h-2.314l-1.324,8.578h2.173l0.5-3.709q0.064-.475.112-0.952t0.082-.964a9.324,9.324,0,0,0,.322,1.354c0.031,0.113.055,0.2,0.07,0.252l1.166,4.02h1.559l1.166-4.02c0.016-.055.041-0.139,0.076-0.252a10.427,10.427,0,0,0,.322-1.359q0.036,0.568.079,1.049t0.1,0.873l0.5,3.709h2.186Zm15.954,8.578V30.807h-2.361v8.578h2.361Zm7.678-2.83h0.821a7.182,7.182,0,0,0,1.576-.123,2.28,2.28,0,0,0,.855-0.4,2.346,2.346,0,0,0,.727-0.958,3.451,3.451,0,0,0,.246-1.351,3.33,3.33,0,0,0-.249-1.309,2.527,2.527,0,0,0-.724-0.982,2.367,2.367,0,0,0-.984-0.481,9.808,9.808,0,0,0-2.016-.141h-2.443v8.578h2.191v-2.83Zm0-3.9h0.469a2.138,2.138,0,0,1,1.16.228,0.868,0.868,0,0,1,.328.768,0.889,0.889,0,0,1-.334.788,2.173,2.173,0,0,1-1.177.231H576.67V32.652Zm8.341,5.7a4.607,4.607,0,0,0,1.415.955,4.224,4.224,0,0,0,1.631.3,3.383,3.383,0,0,0,2.391-.829,2.846,2.846,0,0,0,.9-2.194,2.885,2.885,0,0,0-.159-0.981,2.09,2.09,0,0,0-.463-0.759,4.37,4.37,0,0,0-1.88-.85l-0.106-.029a2.5,2.5,0,0,1-.893-0.369,0.636,0.636,0,0,1-.232-0.516,0.625,0.625,0,0,1,.264-0.518,1.1,1.1,0,0,1,.685-0.2,2.159,2.159,0,0,1,.829.173,3.068,3.068,0,0,1,.818.513l0.732-1.682a4.35,4.35,0,0,0-1.2-.577,4.665,4.665,0,0,0-1.345-.19,2.984,2.984,0,0,0-2.135.776,2.634,2.634,0,0,0-.824,2.007,2.071,2.071,0,0,0,.522,1.494,3.849,3.849,0,0,0,1.781.885,3.308,3.308,0,0,1,1.181.478,0.835,0.835,0,0,1,.261.659,0.8,0.8,0,0,1-.3.639,1.161,1.161,0,0,1-.771.252,2,2,0,0,1-1.01-.293,4.248,4.248,0,0,1-1.029-.885Zm11.193-3.9v0.891a9.115,9.115,0,0,0,.173,2.083,2.868,2.868,0,0,0,.571,1.145,2.694,2.694,0,0,0,1.21.782,6.8,6.8,0,0,0,3.73,0,2.646,2.646,0,0,0,1.207-.782,2.8,2.8,0,0,0,.574-1.145,9.271,9.271,0,0,0,.17-2.083V30.807h-2.326v4.172a12.96,12.96,0,0,1-.047,1.321,2.547,2.547,0,0,1-.158.671,1,1,0,0,1-.472.5,1.737,1.737,0,0,1-.811.173,1.757,1.757,0,0,1-.815-0.173,0.966,0.966,0,0,1-.469-0.5,2.547,2.547,0,0,1-.158-0.671,12.96,12.96,0,0,1-.047-1.321V30.807H596.2v3.645Zm21.53-3.645h-2.32l-1.307,4.412q-0.111.393-.176,0.671a4.208,4.208,0,0,0-.088.507,5.679,5.679,0,0,0-.228-1.014c-0.024-.07-0.039-0.121-0.047-0.152l-1.295-4.424h-2.314l-1.325,8.578h2.174l0.5-3.709q0.065-.475.111-0.952t0.082-.964a9.482,9.482,0,0,0,.323,1.354c0.031,0.113.054,0.2,0.07,0.252l1.166,4.02h1.559l1.166-4.02c0.015-.055.041-0.139,0.076-0.252a10.594,10.594,0,0,0,.322-1.359q0.036,0.568.079,1.049t0.1,0.873l0.5,3.709h2.185Zm15.321,8.578h0.393a11.979,11.979,0,0,0,2.472-.184,4.045,4.045,0,0,0,1.418-.618,3.675,3.675,0,0,0,1.237-1.456,5.078,5.078,0,0,0,0-4.049,3.676,3.676,0,0,0-1.237-1.456,4.071,4.071,0,0,0-1.456-.627,14.586,14.586,0,0,0-2.827-.187h-1.787v8.578h1.787Zm0.527-6.662h0.393a2.935,2.935,0,0,1,2.01.574,2.323,2.323,0,0,1,.633,1.8,2.294,2.294,0,0,1-.633,1.8,2.966,2.966,0,0,1-2.01.566h-0.393v-4.74Zm18.943,0.656a4.4,4.4,0,0,0-.987-1.447,4.544,4.544,0,0,0-1.491-.976,4.7,4.7,0,0,0-3.522,0,4.482,4.482,0,0,0-1.479.976,4.341,4.341,0,0,0-1,1.45,4.534,4.534,0,0,0,0,3.46,4.332,4.332,0,0,0,1,1.453,4.482,4.482,0,0,0,1.479.976,4.672,4.672,0,0,0,3.513,0,4.689,4.689,0,0,0,1.5-.976A4.5,4.5,0,0,0,652.525,33.379Zm-5.856,3.545a2.9,2.9,0,0,1,.009-3.612,2.148,2.148,0,0,1,3.208,0,2.856,2.856,0,0,1,.008,3.6A2.182,2.182,0,0,1,646.669,36.924Zm16.508,2.461v-2h-2.906V30.807h-2.338v8.578h5.244Zm13-6.006a4.4,4.4,0,0,0-.987-1.447,4.544,4.544,0,0,0-1.491-.976,4.7,4.7,0,0,0-3.522,0,4.493,4.493,0,0,0-1.479.976,4.356,4.356,0,0,0-1,1.45,4.534,4.534,0,0,0,0,3.46,4.346,4.346,0,0,0,1,1.453,4.493,4.493,0,0,0,1.479.976,4.683,4.683,0,0,0,5.013-.976A4.5,4.5,0,0,0,676.172,33.379Zm-5.856,3.545a2.9,2.9,0,0,1,.009-3.612,2.148,2.148,0,0,1,3.208,0,2.858,2.858,0,0,1,.009,3.6A2.183,2.183,0,0,1,670.316,36.924Zm13.455,2.461V36.027l1.969,3.357h2.643l-2.338-3.457a2.388,2.388,0,0,0,1.427-.829,2.55,2.55,0,0,0,.489-1.62,2.856,2.856,0,0,0-.249-1.2,2.31,2.31,0,0,0-.712-0.9,2.552,2.552,0,0,0-.976-0.442,10.187,10.187,0,0,0-2-.132H681.58v8.578h2.191Zm0-6.779h0.469a1.713,1.713,0,0,1,1.093.273,1.136,1.136,0,0,1,.325.917,0.94,0.94,0,0,1-.348.809,1.878,1.878,0,0,1-1.1.258h-0.434V32.605Z"/>
  <path id="Omar_Nobil_VP_of_Design_dolor_sit_amet_consectetur_adipisicin" data-name="Omar Nobil, VP of Design dolor sit amet, consectetur adipisicin" class="cls-1" d="M651.372,435.646a5.268,5.268,0,0,1-1.167,1.779,4.956,4.956,0,0,1-1.653,1.086,5.281,5.281,0,0,1-1.977.372,4.245,4.245,0,0,1-4.5-4.5,5.593,5.593,0,0,1,1.621-3.947,4.763,4.763,0,0,1,1.6-1.069,5.049,5.049,0,0,1,1.933-.373,4.474,4.474,0,0,1,3.3,1.248,4.4,4.4,0,0,1,1.256,3.266A5.646,5.646,0,0,1,651.372,435.646Zm-6.633-7.455a6.214,6.214,0,0,0-2.1,1.316,6.286,6.286,0,0,0-1.462,2.184,7.147,7.147,0,0,0-.515,2.711,5.48,5.48,0,0,0,5.762,5.778,7.221,7.221,0,0,0,2.617-.474,6.411,6.411,0,0,0,2.148-1.349,6.479,6.479,0,0,0,1.5-2.184,6.8,6.8,0,0,0,.527-2.662,5.608,5.608,0,0,0-1.613-4.2,5.88,5.88,0,0,0-4.3-1.576A7.163,7.163,0,0,0,644.739,428.191Zm16.555,11.673,0.5-3.752a4.713,4.713,0,0,1,.7-2.156,1.657,1.657,0,0,1,1.406-.68,1.212,1.212,0,0,1,1.362,1.361c0,0.114,0,.227-0.012.34s-0.021.227-.037,0.341l-0.6,4.546h1.3l0.616-4.684a0.752,0.752,0,0,1,.008-0.081q0.057-.51.057-0.746a2.211,2.211,0,0,0-.555-1.588,1.976,1.976,0,0,0-1.5-.583,2.969,2.969,0,0,0-1.406.348,3.935,3.935,0,0,0-1.22,1.045,1.751,1.751,0,0,0-.689-1.025,2.131,2.131,0,0,0-1.264-.368,2.746,2.746,0,0,0-1.361.348,3.69,3.69,0,0,0-1.151,1.062l0.17-1.143h-1.232l-0.988,7.415h1.272l0.5-3.752a4.64,4.64,0,0,1,.709-2.127,1.651,1.651,0,0,1,1.4-.709,1.212,1.212,0,0,1,1.362,1.361c0,0.108,0,.219-0.012.332s-0.021.227-.037,0.341l-0.6,4.554h1.313Zm9.829-1.588a2.612,2.612,0,0,1-.652-1.848,3.212,3.212,0,0,1,.786-2.229,2.59,2.59,0,0,1,2.018-.875,1.913,1.913,0,0,1,1.535.7,2.734,2.734,0,0,1,.588,1.824,3.374,3.374,0,0,1-.75,2.236,2.3,2.3,0,0,1-1.835.9A2.2,2.2,0,0,1,671.123,438.276Zm4.558-4.336a2.83,2.83,0,0,0-1.045-1.321,2.99,2.99,0,0,0-1.661-.437,3.523,3.523,0,0,0-2.731,1.2,4.37,4.37,0,0,0-1.086,3.043,3.994,3.994,0,0,0,.891,2.7,2.912,2.912,0,0,0,2.318,1.038,3.2,3.2,0,0,0,1.5-.345,3.538,3.538,0,0,0,1.2-1.065l-0.178,1.11h1.3l0.972-7.415h-1.272Zm8.8-1.6a1.971,1.971,0,0,0-.377-0.122,1.772,1.772,0,0,0-.369-0.04,2.043,2.043,0,0,0-1.146.344,3.928,3.928,0,0,0-1.033,1.1l0.2-1.175h-1.28l-0.973,7.415h1.256l0.47-3.5a5.148,5.148,0,0,1,.7-2.212,1.566,1.566,0,0,1,1.35-.713,1.77,1.77,0,0,1,.437.056,2.166,2.166,0,0,1,.43.163Zm8.564,7.5,1.175-8.712,7.042,9.19,1.621-12.342h-1.41l-1.175,8.825-7.075-9.279-1.588,12.318h1.41ZM710.576,434a2.814,2.814,0,0,1,.7,1.969,3.325,3.325,0,0,1-.794,2.285,2.565,2.565,0,0,1-2.01.9,2.37,2.37,0,0,1-1.827-.75,2.789,2.789,0,0,1-.693-1.973,3.341,3.341,0,0,1,.8-2.3,2.579,2.579,0,0,1,2.022-.9A2.328,2.328,0,0,1,710.576,434Zm-4.9,5.162a3.665,3.665,0,0,0,2.714,1.021,3.938,3.938,0,0,0,3-1.236,4.5,4.5,0,0,0,1.163-3.213A3.378,3.378,0,0,0,711.5,433.2a3.682,3.682,0,0,0-2.666-1.017,4,4,0,0,0-2.982,1.227,4.193,4.193,0,0,0-1.2,3.051A3.647,3.647,0,0,0,705.678,439.159Zm15.076-5.053a2.61,2.61,0,0,1,.648,1.844,3.207,3.207,0,0,1-.786,2.228,2.6,2.6,0,0,1-2.026.876,1.919,1.919,0,0,1-1.532-.7,2.736,2.736,0,0,1-.591-1.832,3.337,3.337,0,0,1,.753-2.224,2.322,2.322,0,0,1,1.84-.9A2.2,2.2,0,0,1,720.754,434.106Zm-4.547,4.315a2.85,2.85,0,0,0,1.05,1.317,2.948,2.948,0,0,0,1.649.442,3.586,3.586,0,0,0,1.6-.365,3.437,3.437,0,0,0,1.248-1.029,4.813,4.813,0,0,0,.709-1.337,4.442,4.442,0,0,0,.247-1.451,4.119,4.119,0,0,0-.883-2.763,2.916,2.916,0,0,0-2.334-1.037,3.141,3.141,0,0,0-1.487.352,3.533,3.533,0,0,0-1.187,1.058l0.851-6.305h-1.3l-1.661,12.561h1.313Zm10.234-8.845a0.857,0.857,0,0,0,.628.264,0.846,0.846,0,0,0,.628-0.26,0.872,0.872,0,0,0,.256-0.64,0.842,0.842,0,0,0-.256-0.62,0.853,0.853,0,0,0-.628-0.255,0.868,0.868,0,0,0-.628.259,0.838,0.838,0,0,0-.263.616A0.867,0.867,0,0,0,726.441,429.576Zm-0.036,10.288,0.981-7.415H726.1l-0.981,7.415h1.289Zm6.478-12.561h-1.3l-1.653,12.561h1.305Zm1.729,14.8,2.5-3.727-1.191-.746L733.8,441.59Zm14.528-1.774L755.631,428h-1.58l-4.53,8.89L747.333,428h-1.5ZM759,429.272h1.029a6.764,6.764,0,0,1,1.167.073,1.838,1.838,0,0,1,.64.244,1.55,1.55,0,0,1,.6.64,2.028,2.028,0,0,1,.2.924,2.416,2.416,0,0,1-.292,1.207,1.8,1.8,0,0,1-.834.77,2.782,2.782,0,0,1-.758.21,10.039,10.039,0,0,1-1.349.065H758.43Zm-1.41,10.592,0.68-5.211h1.062a10.4,10.4,0,0,0,2.249-.174,3.2,3.2,0,0,0,1.219-.571,3.125,3.125,0,0,0,.956-1.2,3.823,3.823,0,0,0,.325-1.608,3.332,3.332,0,0,0-.272-1.366,2.689,2.689,0,0,0-.79-1.025,2.926,2.926,0,0,0-1.135-.551,10.512,10.512,0,0,0-2.236-.162h-1.913l-1.555,11.864h1.41ZM777,434a2.814,2.814,0,0,1,.7,1.969,3.325,3.325,0,0,1-.794,2.285,2.565,2.565,0,0,1-2.01.9,2.37,2.37,0,0,1-1.827-.75,2.789,2.789,0,0,1-.693-1.973,3.341,3.341,0,0,1,.8-2.3,2.579,2.579,0,0,1,2.022-.9A2.328,2.328,0,0,1,777,434Zm-4.9,5.162a3.669,3.669,0,0,0,2.715,1.021,3.94,3.94,0,0,0,3-1.236,4.5,4.5,0,0,0,1.162-3.213,3.377,3.377,0,0,0-1.053-2.532,3.682,3.682,0,0,0-2.666-1.017,4,4,0,0,0-2.982,1.227,4.194,4.194,0,0,0-1.2,3.051A3.651,3.651,0,0,0,772.1,439.159Zm10.96,0.7,0.826-6.337h1.629l0.146-1.078h-1.637l0.308-2.309a4.336,4.336,0,0,1,.373-1.5,0.745,0.745,0,0,1,.672-0.34,1.249,1.249,0,0,1,.333.053,4.5,4.5,0,0,1,.534.206l0.219-1.126a2.706,2.706,0,0,0-.579-0.215,2.582,2.582,0,0,0-.6-0.069,1.8,1.8,0,0,0-1.535.661,5.546,5.546,0,0,0-.734,2.459l-0.283,2.18h-1.378l-0.138,1.078h1.362l-0.827,6.337h1.313Zm12.7-10.592h0.827a12.775,12.775,0,0,1,1.884.106,3.437,3.437,0,0,1,1.106.348,3.547,3.547,0,0,1,1.508,1.52,4.939,4.939,0,0,1,.534,2.346,5.512,5.512,0,0,1-.668,2.767,4.221,4.221,0,0,1-1.884,1.763,4.332,4.332,0,0,1-1.236.344,21.033,21.033,0,0,1-2.532.1h-0.77Zm-0.583,10.592a16.6,16.6,0,0,0,3.61-.276,5.3,5.3,0,0,0,1.949-.915,5.618,5.618,0,0,0,1.71-2.2,7.132,7.132,0,0,0,.616-2.962,6.061,6.061,0,0,0-.734-3.007,4.755,4.755,0,0,0-2.054-1.977,4.6,4.6,0,0,0-1.369-.4,21.8,21.8,0,0,0-2.812-.122h-1.6l-1.556,11.864h2.237Zm17.13-3.712c0-.081,0-0.2,0-0.356a3.829,3.829,0,0,0-.859-2.666,3.091,3.091,0,0,0-2.415-.948,3.72,3.72,0,0,0-2.844,1.219,4.342,4.342,0,0,0-1.134,3.076,3.7,3.7,0,0,0,.976,2.7,3.846,3.846,0,0,0,4.331.584,4.534,4.534,0,0,0,1.427-1.261l-0.892-.729a3.805,3.805,0,0,1-1.069.981,2.394,2.394,0,0,1-1.208.316,2.106,2.106,0,0,1-1.661-.685,2.726,2.726,0,0,1-.608-1.876v-0.13l5.94-.008Q812.3,436.274,812.3,436.152Zm-5.838-.834a2.632,2.632,0,0,1,.9-1.524,2.523,2.523,0,0,1,1.649-.567,2,2,0,0,1,1.5.543,2.176,2.176,0,0,1,.547,1.548h-4.594Zm8.747,4.522a3.807,3.807,0,0,0,1.653.34,2.892,2.892,0,0,0,1.993-.648,2.256,2.256,0,0,0,.73-1.775,1.863,1.863,0,0,0-.373-1.207,3.9,3.9,0,0,0-1.467-.932l-0.13-.057q-1.377-.591-1.377-1.191a0.954,0.954,0,0,1,.389-0.758,1.444,1.444,0,0,1,.948-0.32,2.191,2.191,0,0,1,1.831.916l0.778-.932a3.466,3.466,0,0,0-1.142-.819,3.425,3.425,0,0,0-1.378-.275,2.833,2.833,0,0,0-1.937.66,2.139,2.139,0,0,0-.753,1.682,1.716,1.716,0,0,0,.348,1.1,4.189,4.189,0,0,0,1.41.948q0.171,0.088.462,0.227a1.545,1.545,0,0,1,1.151,1.134,1.038,1.038,0,0,1-.41.863,1.742,1.742,0,0,1-1.106.32,2.07,2.07,0,0,1-1.138-.328,3.019,3.019,0,0,1-.92-0.984l-0.827.98A3.515,3.515,0,0,0,815.211,439.84Zm8.313-10.264a0.857,0.857,0,0,0,.628.264,0.846,0.846,0,0,0,.628-0.26,0.875,0.875,0,0,0,.255-0.64,0.871,0.871,0,0,0-.883-0.875,0.868,0.868,0,0,0-.628.259,0.835,0.835,0,0,0-.263.616A0.863,0.863,0,0,0,823.524,429.576Zm-0.036,10.288,0.98-7.415H823.18l-0.981,7.415h1.289Zm5.355-1.686a2.588,2.588,0,0,1-.652-1.831,3.128,3.128,0,0,1,.786-2.2,2.612,2.612,0,0,1,2.018-.859,1.923,1.923,0,0,1,1.535.685,2.669,2.669,0,0,1,.588,1.8,3.306,3.306,0,0,1-.754,2.212,2.315,2.315,0,0,1-1.831.891A2.2,2.2,0,0,1,828.843,438.178Zm4.559-4.27a2.708,2.708,0,0,0-1.038-1.293,3.046,3.046,0,0,0-1.669-.433,3.521,3.521,0,0,0-2.727,1.207,4.363,4.363,0,0,0-1.09,3.039,3.772,3.772,0,0,0,.9,2.605,2.945,2.945,0,0,0,2.3,1.017,3.174,3.174,0,0,0,1.5-.348,3.591,3.591,0,0,0,1.2-1.07l-0.13,1.135a3.379,3.379,0,0,1-.741,1.924,2.024,2.024,0,0,1-1.585.677,2.414,2.414,0,0,1-1.689-.551,2.115,2.115,0,0,1-.636-1.572l-1.273.17a2.908,2.908,0,0,0,.92,2.2,3.387,3.387,0,0,0,2.378.818,4.622,4.622,0,0,0,2.014-.376,3.055,3.055,0,0,0,1.277-1.212,8.361,8.361,0,0,0,.745-2.99c0.027-.222.049-0.392,0.065-0.511l0.745-5.891H833.6Zm5.076,5.956,0.5-3.752a4,4,0,0,1,.81-2.111,2.066,2.066,0,0,1,1.645-.725,1.772,1.772,0,0,1,1.184.348,1.263,1.263,0,0,1,.4,1.013c0,0.087-.016.262-0.049,0.527,0,0.065-.011.116-0.016,0.154l-0.584,4.546h1.3l0.616-4.684c0.021-.151.038-0.3,0.049-0.438s0.016-.27.016-0.389a2.078,2.078,0,0,0-.62-1.588,2.354,2.354,0,0,0-1.682-.583,3.141,3.141,0,0,0-1.491.36,4.409,4.409,0,0,0-1.3,1.115l0.17-1.208h-1.232l-0.972,7.415h1.256Z"/>
  <path id="_" data-name="“" class="cls-2" d="M710.588,217a51.8,51.8,0,0,0-10.67,4.62,36.576,36.576,0,0,0-8.69,6.93,31.692,31.692,0,0,0-5.94,9.35,29.431,29.431,0,0,0-2.2,11.44v29.7h27.5v-29.7h-13.42a21.133,21.133,0,0,1,3.41-12.1,19.893,19.893,0,0,1,10.01-7.48V217Zm-43.78,0a51.8,51.8,0,0,0-10.67,4.62,36.576,36.576,0,0,0-8.69,6.93,31.692,31.692,0,0,0-5.94,9.35,29.431,29.431,0,0,0-2.2,11.44v29.7h27.5v-29.7h-13.42a21.133,21.133,0,0,1,3.41-12.1,19.893,19.893,0,0,1,10.01-7.48V217Z"/>
  <g>
    <path id="shop_the_lorem_ipsum_dolor_sit_amet_consectetur_adipisicing_el-2" data-name="shop the lorem ipsum dolor sit amet, consectetur adipisicing el" class="cls-1" d="M1104.06,340.353a4.556,4.556,0,0,0,1.41.955,4.225,4.225,0,0,0,1.63.305,3.36,3.36,0,0,0,2.39-.829,2.841,2.841,0,0,0,.9-2.194,2.791,2.791,0,0,0-.16-0.982,2.058,2.058,0,0,0-.46-0.759,4.4,4.4,0,0,0-1.88-.849l-0.11-.029a2.467,2.467,0,0,1-.89-0.37,0.647,0.647,0,0,1-.23-0.515,0.639,0.639,0,0,1,.26-0.519,1.119,1.119,0,0,1,.69-0.2,2.187,2.187,0,0,1,.83.173,2.926,2.926,0,0,1,.81.513l0.74-1.682a4.312,4.312,0,0,0-1.21-.577,4.623,4.623,0,0,0-1.34-.191,2.989,2.989,0,0,0-2.14.777,2.626,2.626,0,0,0-.82,2.007,2.061,2.061,0,0,0,.52,1.494,3.862,3.862,0,0,0,1.78.885,3.3,3.3,0,0,1,1.18.477,0.814,0.814,0,0,1,.26.659,0.8,0.8,0,0,1-.3.639,1.162,1.162,0,0,1-.77.252,2,2,0,0,1-1.01-.293,4.237,4.237,0,0,1-1.03-.885Zm13.58,1.032v-3.493h3.12v3.493h2.34v-8.578h-2.34v3.334h-3.12v-3.334h-2.34v8.578h2.34Zm19.35-6.006a4.423,4.423,0,0,0-.99-1.447,4.671,4.671,0,0,0-5.01-.976,4.693,4.693,0,0,0-2.49,2.426,4.571,4.571,0,0,0,0,3.46,4.678,4.678,0,0,0,2.49,2.428,4.661,4.661,0,0,0,3.51,0,4.721,4.721,0,0,0,1.5-.975,4.52,4.52,0,0,0,.99-1.447A4.594,4.594,0,0,0,1136.99,335.379Zm-5.86,3.545a2.887,2.887,0,0,1,.01-3.613,2.152,2.152,0,0,1,3.21,0,2.6,2.6,0,0,1,.64,1.8,2.63,2.63,0,0,1-.63,1.805A2.188,2.188,0,0,1,1131.13,338.924Zm13.46-.369h0.82a7.084,7.084,0,0,0,1.57-.123,2.282,2.282,0,0,0,.86-0.405,2.413,2.413,0,0,0,.73-0.958,3.525,3.525,0,0,0,.24-1.35,3.263,3.263,0,0,0-.25-1.31,2.422,2.422,0,0,0-.72-0.981,2.376,2.376,0,0,0-.99-0.481,9.663,9.663,0,0,0-2.01-.14h-2.44v8.578h2.19v-2.83Zm0-3.9h0.47a2.145,2.145,0,0,1,1.16.229,1.093,1.093,0,0,1-.01,1.555,2.179,2.179,0,0,1-1.18.232h-0.44v-2.016Zm19.94,6.733v-6.551h1.92v-2.027h-6.18v2.027h1.92v6.551h2.34Zm9,0v-3.493h3.12v3.493h2.34v-8.578h-2.34v3.334h-3.12v-3.334h-2.33v8.578h2.33Zm16.14,0v-1.922h-2.97v-1.447h2.8v-1.84h-2.8v-1.489h2.97v-1.88h-5.25v8.578h5.25Zm17.75,0v-2h-2.91v-6.574h-2.33v8.578h5.24Zm13-6.006a4.423,4.423,0,0,0-.99-1.447,4.573,4.573,0,0,0-1.49-.976,4.655,4.655,0,0,0-1.76-.343,4.581,4.581,0,0,0-1.76.343,4.33,4.33,0,0,0-1.48.976,4.263,4.263,0,0,0-1.01,1.45,4.571,4.571,0,0,0,0,3.46,4.264,4.264,0,0,0,1.01,1.453,4.327,4.327,0,0,0,1.48.975,4.661,4.661,0,0,0,3.51,0,4.721,4.721,0,0,0,1.5-.975,4.361,4.361,0,0,0,1.33-3.182A4.58,4.58,0,0,0,1220.42,335.379Zm-5.86,3.545a2.625,2.625,0,0,1-.63-1.811,2.594,2.594,0,0,1,.64-1.8,2.152,2.152,0,0,1,3.21,0,2.857,2.857,0,0,1,0,3.6A2.176,2.176,0,0,1,1214.56,338.924Zm13.45,2.461v-3.358l1.97,3.358h2.65l-2.34-3.457a2.365,2.365,0,0,0,1.42-.829,2.529,2.529,0,0,0,.49-1.621,2.8,2.8,0,0,0-.25-1.2,2.241,2.241,0,0,0-.71-0.9,2.557,2.557,0,0,0-.97-0.443,10.257,10.257,0,0,0-2-.131h-2.45v8.578h2.19Zm0-6.78h0.47a1.743,1.743,0,0,1,1.1.273,1.158,1.158,0,0,1,.32.917,0.944,0.944,0,0,1-.35.808,1.861,1.861,0,0,1-1.1.258h-0.44v-2.256Zm14.36,6.78v-1.922h-2.97v-1.447h2.8v-1.84h-2.8v-1.489h2.97v-1.88h-5.25v8.578h5.25Zm13.67-8.578h-2.32l-1.31,4.412c-0.07.261-.13,0.485-0.17,0.671a2.618,2.618,0,0,0-.09.506,5.694,5.694,0,0,0-.23-1.013c-0.02-.071-0.04-0.121-0.05-0.153l-1.29-4.423h-2.32l-1.32,8.578h2.17l0.51-3.709c0.04-.317.08-0.634,0.11-0.952s0.06-.64.08-0.964a9.851,9.851,0,0,0,.32,1.353c0.03,0.114.06,0.2,0.07,0.252l1.17,4.02h1.56l1.16-4.02c0.02-.055.04-0.138,0.08-0.252a9.771,9.771,0,0,0,.32-1.359c0.02,0.379.05,0.728,0.08,1.049s0.06,0.611.1,0.873l0.5,3.709h2.19ZM1107.15,367.2v-8.578h-2.36V367.2h2.36Zm7.68-2.83h0.82a7.251,7.251,0,0,0,1.58-.123,2.3,2.3,0,0,0,.85-0.4,2.406,2.406,0,0,0,.73-0.958,3.521,3.521,0,0,0,.24-1.35,3.263,3.263,0,0,0-.25-1.31,2.436,2.436,0,0,0-.72-0.981,2.4,2.4,0,0,0-.98-0.481,9.918,9.918,0,0,0-2.02-.14h-2.44V367.2h2.19v-2.83Zm0-3.9h0.47a2.154,2.154,0,0,1,1.16.229,0.866,0.866,0,0,1,.33.768,0.9,0.9,0,0,1-.34.788,2.166,2.166,0,0,1-1.18.231h-0.44v-2.016Zm8.34,5.7a4.573,4.573,0,0,0,1.41.955,4.259,4.259,0,0,0,1.64.3,3.393,3.393,0,0,0,2.39-.829,2.867,2.867,0,0,0,.89-2.194,2.79,2.79,0,0,0-.16-0.981,2.058,2.058,0,0,0-.46-0.759,4.385,4.385,0,0,0-1.88-.85l-0.1-.029a2.521,2.521,0,0,1-.9-0.369,0.65,0.65,0,0,1-.23-0.516,0.635,0.635,0,0,1,.26-0.518,1.119,1.119,0,0,1,.69-0.2,2.187,2.187,0,0,1,.83.173,3.125,3.125,0,0,1,.82.513l0.73-1.682a4.312,4.312,0,0,0-1.21-.577,4.622,4.622,0,0,0-1.34-.19,2.993,2.993,0,0,0-2.14.776,2.665,2.665,0,0,0-.82,2.007,2.06,2.06,0,0,0,.52,1.494,3.862,3.862,0,0,0,1.78.885,3.213,3.213,0,0,1,1.18.477,0.816,0.816,0,0,1,.26.66,0.8,0.8,0,0,1-.3.638,1.162,1.162,0,0,1-.77.252,2.019,2.019,0,0,1-1.01-.293,4.237,4.237,0,0,1-1.03-.885Zm11.19-3.9v0.891a8.753,8.753,0,0,0,.18,2.083,2.741,2.741,0,0,0,.57,1.145,2.651,2.651,0,0,0,1.21.783,5.83,5.83,0,0,0,1.86.26,5.939,5.939,0,0,0,1.87-.26,2.618,2.618,0,0,0,1.2-.783,2.879,2.879,0,0,0,.58-1.145,9.455,9.455,0,0,0,.17-2.083v-4.535h-2.33V362.8a10.581,10.581,0,0,1-.05,1.321,2.7,2.7,0,0,1-.15.671,1.041,1.041,0,0,1-.48.5,1.983,1.983,0,0,1-1.62,0,0.979,0.979,0,0,1-.47-0.5,2.667,2.667,0,0,1-.16-0.671,13.032,13.032,0,0,1-.05-1.321v-4.172h-2.33v3.644Zm21.53-3.644h-2.32l-1.3,4.412c-0.08.262-.14,0.485-0.18,0.671s-0.07.354-.09,0.507a5.7,5.7,0,0,0-.23-1.014,0.84,0.84,0,0,1-.04-0.152l-1.3-4.424h-2.31l-1.33,8.578h2.18l0.5-3.709c0.04-.316.08-0.634,0.11-0.952s0.06-.64.08-0.964a8.735,8.735,0,0,0,.33,1.353c0.03,0.114.05,0.2,0.07,0.252l1.16,4.02h1.56l1.17-4.02c0.01-.054.04-0.138,0.07-0.252a11.744,11.744,0,0,0,.33-1.359c0.02,0.379.05,0.729,0.07,1.049s0.07,0.611.1,0.873l0.51,3.709h2.18Zm15.32,8.578h0.4a11.988,11.988,0,0,0,2.47-.185,4.112,4.112,0,0,0,1.42-.618,3.666,3.666,0,0,0,1.23-1.456,5.089,5.089,0,0,0,0-4.049,3.666,3.666,0,0,0-1.23-1.456,4.128,4.128,0,0,0-1.46-.627,14.555,14.555,0,0,0-2.83-.187h-1.78V367.2h1.78Zm0.53-6.662h0.39a2.927,2.927,0,0,1,2.01.574,2.333,2.333,0,0,1,.64,1.805,2.3,2.3,0,0,1-.64,1.8,2.959,2.959,0,0,1-2.01.565h-0.39v-4.74Zm18.94,0.656a4.4,4.4,0,0,0-.98-1.447,4.528,4.528,0,0,0-1.5-.976,4.687,4.687,0,0,0-3.52,0,4.546,4.546,0,0,0-1.48.976,4.419,4.419,0,0,0,0,6.363,4.546,4.546,0,0,0,1.48.976,4.7,4.7,0,0,0,3.52,0,4.741,4.741,0,0,0,1.5-.976,4.361,4.361,0,0,0,1.33-3.182A4.4,4.4,0,0,0,1190.68,361.2Zm-5.85,3.545a2.625,2.625,0,0,1-.63-1.811,2.59,2.59,0,0,1,.64-1.8,2.139,2.139,0,0,1,3.2,0,2.838,2.838,0,0,1,.01,3.6,2.054,2.054,0,0,1-1.61.715A2.033,2.033,0,0,1,1184.83,364.74Zm16.51,2.461v-2h-2.91v-6.574h-2.34V367.2h5.25Zm12.99-6.006a4.434,4.434,0,0,0-.99-1.447,4.485,4.485,0,0,0-1.49-.976,4.687,4.687,0,0,0-3.52,0,4.546,4.546,0,0,0-1.48.976,4.243,4.243,0,0,0-1,1.45,4.451,4.451,0,0,0,0,3.46,4.235,4.235,0,0,0,1,1.453,4.546,4.546,0,0,0,1.48.976,4.636,4.636,0,0,0,1.76.342,4.585,4.585,0,0,0,1.75-.342,4.528,4.528,0,0,0,1.5-.976,4.221,4.221,0,0,0,.99-1.447A4.594,4.594,0,0,0,1214.33,361.2Zm-5.86,3.545a2.667,2.667,0,0,1-.62-1.811,2.63,2.63,0,0,1,.63-1.8,2.15,2.15,0,0,1,3.21,0,2.6,2.6,0,0,1,.65,1.8,2.635,2.635,0,0,1-.64,1.805A2.188,2.188,0,0,1,1208.47,364.74Zm13.46,2.461v-3.358l1.97,3.358h2.64l-2.34-3.457a2.391,2.391,0,0,0,1.43-.829,2.527,2.527,0,0,0,.49-1.62,2.8,2.8,0,0,0-.25-1.2,2.33,2.33,0,0,0-.71-0.9,2.6,2.6,0,0,0-.98-0.442,10.1,10.1,0,0,0-2-.132h-2.44V367.2h2.19Zm0-6.779h0.47a1.71,1.71,0,0,1,1.09.272,1.128,1.128,0,0,1,.33.917,0.947,0.947,0,0,1-.35.809,1.876,1.876,0,0,1-1.11.257h-0.43v-2.255Z"/>
    <path class="cls-1" d="M1104,347v-1h155v1H1104Z"/>
    <path id="Shape_2_copy_3" data-name="Shape 2 copy 3" class="cls-1" d="M1104,373v-1h124v1H1104Z"/>
  </g>
</svg>
