<svg id="Copy_copy" data-name="Copy copy" xmlns="http://www.w3.org/2000/svg" width="1280" height="492" viewBox="0 0 1280 492">
  <metadata><?xpacket begin="﻿" id="W5M0MpCehiHzreSzNTczkc9d"?>
<x:xmpmeta xmlns:x="adobe:ns:meta/" x:xmptk="Adobe XMP Core 5.6-c138 79.159824, 2016/09/14-01:09:01        ">
   <rdf:RDF xmlns:rdf="http://www.w3.org/1999/02/22-rdf-syntax-ns#">
      <rdf:Description rdf:about=""/>
   </rdf:RDF>
</x:xmpmeta>
                                                                                                    
                                                                                                    
                                                                                                    
                                                                                                    
                                                                                                    
                                                                                                    
                                                                                                    
                                                                                                    
                                                                                                    
                                                                                                    
                                                                                                    
                                                                                                    
                                                                                                    
                                                                                                    
                                                                                                    
                                                                                                    
                                                                                                    
                                                                                                    
                                                                                                    
                                                                                                    
                           
<?xpacket end="w"?></metadata>
<defs>
    <style>
      .cls-1 {
        fill: #fff;
      }

      .cls-1, .cls-2 {
        fill-rule: evenodd;
      }

      .cls-2 {
        fill: #9e7558;
        opacity: 0.67;
        mix-blend-mode: multiply;
      }
    </style>
  </defs>
  <path id="Breezy_airy_linen_is_the_lighter_way_to_layer._incididunt_ut_l" data-name="Breezy, airy linen is the lighter way to layer. incididunt ut l" class="cls-1" d="M119.714,156.864a10.519,10.519,0,0,0,2.48-.2,2.782,2.782,0,0,0,1.24-.7,3.264,3.264,0,0,0,.721-1.11,3.628,3.628,0,0,0,.259-1.361,3.109,3.109,0,0,0-.611-1.973,2.519,2.519,0,0,0-1.666-.945,2.348,2.348,0,0,0,1.309-.883,2.64,2.64,0,0,0,.45-1.572,3.34,3.34,0,0,0-.312-1.446,2.819,2.819,0,0,0-.88-1.082,2.784,2.784,0,0,0-1.065-.458,10.008,10.008,0,0,0-1.925-.134h-2.471v11.864h2.471Zm0-5.559h0.414a6.583,6.583,0,0,1,1.158.073,1.99,1.99,0,0,1,.657.243,1.8,1.8,0,0,1,.729.745,2.4,2.4,0,0,1,.251,1.127,2.438,2.438,0,0,1-.21,1.021,1.76,1.76,0,0,1-.576.721,1.907,1.907,0,0,1-.8.308,10.286,10.286,0,0,1-1.625.089H118.62v-4.327h1.094Zm0-5.081a3.656,3.656,0,0,1,2.168.458,1.943,1.943,0,0,1,.571,1.6,1.683,1.683,0,0,1-.616,1.475,3.811,3.811,0,0,1-2.123.438H118.62v-3.971h1.094Zm8.828,10.64V153.25a3.852,3.852,0,0,1,.5-2.184,1.711,1.711,0,0,1,1.507-.726,2.057,2.057,0,0,1,.373.037,3.222,3.222,0,0,1,.413.109l0.421-1.142a2.722,2.722,0,0,0-.421-0.11,2.6,2.6,0,0,0-.438-0.036,2.339,2.339,0,0,0-1.4.413,3.922,3.922,0,0,0-1.086,1.378v-1.54h-1.127v7.415h1.256Zm6.13-4.546a2.167,2.167,0,0,1,2.253-2.042,2.315,2.315,0,0,1,1.608.53,2.137,2.137,0,0,1,.653,1.512h-4.514Zm5.875,0.778a4.109,4.109,0,0,0-.96-2.877,3.353,3.353,0,0,0-2.606-1.054,3.487,3.487,0,0,0-2.666,1.111,4.013,4.013,0,0,0-1.037,2.852,4.124,4.124,0,0,0,1.045,2.934,3.577,3.577,0,0,0,2.739,1.118,3.715,3.715,0,0,0,3.436-2.026l-0.964-.648a3.5,3.5,0,0,1-1.062,1.211,2.358,2.358,0,0,1-1.345.4,2.307,2.307,0,0,1-1.774-.733,2.715,2.715,0,0,1-.681-1.925v-0.113h5.875V153.1Zm3.488-.778a2.167,2.167,0,0,1,2.253-2.042,2.315,2.315,0,0,1,1.608.53,2.132,2.132,0,0,1,.652,1.512h-4.513Zm5.875,0.778a4.109,4.109,0,0,0-.96-2.877,3.354,3.354,0,0,0-2.606-1.054,3.487,3.487,0,0,0-2.666,1.111,4.013,4.013,0,0,0-1.037,2.852,4.124,4.124,0,0,0,1.045,2.934,3.577,3.577,0,0,0,2.739,1.118,3.715,3.715,0,0,0,3.436-2.026l-0.964-.648a3.5,3.5,0,0,1-1.062,1.211,2.361,2.361,0,0,1-1.345.4,2.31,2.31,0,0,1-1.775-.733,2.719,2.719,0,0,1-.68-1.925v-0.113h5.875V153.1Zm8.147,3.768v-1.11h-4.214l4.247-6.3h-6.224v1.11h3.987l-4.246,6.305h6.45Zm3.707,3.614,4.975-11.029h-1.393l-2.286,5.324-2.155-5.324h-1.467l2.909,6.686-2.009,4.343h1.426Zm6.178-.891,1.985-4.3-1.377-.478-1.54,4.416Zm15.861-4.38a2.283,2.283,0,0,1-1.779.709,2.308,2.308,0,0,1-1.827-.73,3.034,3.034,0,0,1-.644-2.074,2.822,2.822,0,0,1,.64-1.969,2.535,2.535,0,0,1,3.57.061,2.919,2.919,0,0,1,.684,2.021A2.838,2.838,0,0,1,183.8,155.207Zm0.612-5.758v1.394a3.013,3.013,0,0,0-1.106-1.244,3.051,3.051,0,0,0-1.617-.417,3.2,3.2,0,0,0-2.536,1.082,4.263,4.263,0,0,0-.948,2.913,4.208,4.208,0,0,0,.976,2.905,3.278,3.278,0,0,0,2.573,1.1,2.9,2.9,0,0,0,1.552-.426,3.233,3.233,0,0,0,1.138-1.235v1.345h1.232v-7.415h-1.264Zm4.667-2.909a0.906,0.906,0,0,0,.66.267,0.9,0.9,0,0,0,.657-0.267,0.882,0.882,0,0,0,.267-0.648,0.912,0.912,0,0,0-.271-0.665,0.886,0.886,0,0,0-.653-0.275A0.931,0.931,0,0,0,189.082,146.54Zm1.309,10.324v-7.415H189.11v7.415h1.281Zm4.776,0V153.25a3.852,3.852,0,0,1,.5-2.184,1.712,1.712,0,0,1,1.507-.726,2.049,2.049,0,0,1,.373.037,3.192,3.192,0,0,1,.414.109l0.421-1.142a2.752,2.752,0,0,0-.421-0.11,2.607,2.607,0,0,0-.438-0.036,2.344,2.344,0,0,0-1.4.413,3.922,3.922,0,0,0-1.086,1.378v-1.54h-1.126v7.415h1.256Zm6.51,3.614,4.976-11.029h-1.394l-2.285,5.324-2.156-5.324h-1.467l2.91,6.686-2.01,4.343h1.426Zm14.091-3.614V144.3h-1.3v12.561h1.3Zm3.524-10.324a0.906,0.906,0,0,0,.66.267,0.893,0.893,0,0,0,.657-0.267,0.882,0.882,0,0,0,.267-0.648,0.912,0.912,0,0,0-.271-0.665,0.886,0.886,0,0,0-.653-0.275A0.931,0.931,0,0,0,219.292,146.54Zm1.309,10.324v-7.415H219.32v7.415H220.6Zm4.76,0v-3.833a5.625,5.625,0,0,1,.1-1.3,1.813,1.813,0,0,1,.336-0.664,2.057,2.057,0,0,1,.774-0.588,2.534,2.534,0,0,1,1.033-.206,1.833,1.833,0,0,1,1.463.547,2.5,2.5,0,0,1,.474,1.673v4.368h1.3v-5.049a2.533,2.533,0,0,0-.738-1.936,2.863,2.863,0,0,0-2.05-.7,3.341,3.341,0,0,0-1.556.348,3.1,3.1,0,0,0-1.15,1.062v-1.143h-1.24v7.415h1.256Zm9.565-4.546a2.167,2.167,0,0,1,2.253-2.042,2.316,2.316,0,0,1,1.609.53,2.136,2.136,0,0,1,.652,1.512h-4.514ZM240.8,153.1a4.109,4.109,0,0,0-.96-2.877,3.352,3.352,0,0,0-2.605-1.054,3.485,3.485,0,0,0-2.666,1.111,4.009,4.009,0,0,0-1.038,2.852,4.125,4.125,0,0,0,1.046,2.934,3.577,3.577,0,0,0,2.739,1.118,3.718,3.718,0,0,0,3.436-2.026l-0.965-.648a3.5,3.5,0,0,1-1.061,1.211,2.361,2.361,0,0,1-1.345.4,2.309,2.309,0,0,1-1.775-.733,2.715,2.715,0,0,1-.681-1.925v-0.113H240.8V153.1Zm4,3.768v-3.833a5.625,5.625,0,0,1,.1-1.3,1.783,1.783,0,0,1,.336-0.664,2.042,2.042,0,0,1,.774-0.588,2.534,2.534,0,0,1,1.033-.206,1.833,1.833,0,0,1,1.463.547,2.5,2.5,0,0,1,.474,1.673v4.368h1.3v-5.049a2.533,2.533,0,0,0-.738-1.936,2.863,2.863,0,0,0-2.05-.7,3.341,3.341,0,0,0-1.556.348,3.111,3.111,0,0,0-1.151,1.062v-1.143h-1.239v7.415H244.8Zm14.58-10.324a0.908,0.908,0,0,0,.661.267,0.892,0.892,0,0,0,.656-0.267,0.879,0.879,0,0,0,.268-0.648,0.913,0.913,0,0,0-.272-0.665,0.884,0.884,0,0,0-.652-0.275,0.9,0.9,0,0,0-.661.271A0.935,0.935,0,0,0,259.38,146.54Zm1.309,10.324v-7.415h-1.28v7.415h1.28Zm3.881-.073a3.689,3.689,0,0,0,1.763.389,2.88,2.88,0,0,0,1.957-.652,2.156,2.156,0,0,0,.749-1.706,1.831,1.831,0,0,0-.474-1.317,4.076,4.076,0,0,0-1.681-.887c-0.109-.033-0.254-0.079-0.438-0.138q-1.475-.462-1.475-1.143a1.018,1.018,0,0,1,.353-0.8,1.322,1.322,0,0,1,.911-0.312,1.892,1.892,0,0,1,1.025.276,1.714,1.714,0,0,1,.669.786l1.029-.632a2.21,2.21,0,0,0-.989-1.09,3.334,3.334,0,0,0-1.653-.385,2.814,2.814,0,0,0-1.9.624,2.023,2.023,0,0,0-.729,1.612q0,1.4,2.706,2.334l0.211,0.073a2.438,2.438,0,0,1,.9.478,0.874,0.874,0,0,1,.263.648,0.987,0.987,0,0,1-.385.811,1.569,1.569,0,0,1-1.009.308,2.04,2.04,0,0,1-1.11-.3,2.233,2.233,0,0,1-.778-0.887l-1.086.729A2.881,2.881,0,0,0,264.57,156.791Zm13.13,0.073H279v-6.37h1.361v-1.045H279v-2.99h-1.3v2.99h-1.361v1.045H277.7v6.37Zm6.186,0v-3.833a5.61,5.61,0,0,1,.1-1.3,1.783,1.783,0,0,1,.336-0.664,2.042,2.042,0,0,1,.774-0.588,2.534,2.534,0,0,1,1.033-.206,1.833,1.833,0,0,1,1.463.547,2.5,2.5,0,0,1,.474,1.673v4.368h1.3v-5.049a2.533,2.533,0,0,0-.738-1.936,2.865,2.865,0,0,0-2.05-.7,3.338,3.338,0,0,0-1.556.348,3.111,3.111,0,0,0-1.151,1.062V144.3h-1.24v12.561h1.256Zm9.566-4.546a2.167,2.167,0,0,1,2.253-2.042,2.313,2.313,0,0,1,1.608.53,2.137,2.137,0,0,1,.653,1.512h-4.514Zm5.875,0.778a4.109,4.109,0,0,0-.96-2.877,3.352,3.352,0,0,0-2.605-1.054,3.489,3.489,0,0,0-2.667,1.111,4.013,4.013,0,0,0-1.037,2.852,4.125,4.125,0,0,0,1.046,2.934,3.574,3.574,0,0,0,2.739,1.118,3.715,3.715,0,0,0,3.435-2.026l-0.964-.648a3.51,3.51,0,0,1-1.061,1.211,2.364,2.364,0,0,1-1.346.4,2.307,2.307,0,0,1-1.774-.733,2.715,2.715,0,0,1-.681-1.925v-0.113h5.875V153.1ZM118.474,182.68V170.12h-1.3v12.56h1.3ZM122,172.356a0.907,0.907,0,0,0,.66.268,0.893,0.893,0,0,0,.656-0.268,0.879,0.879,0,0,0,.268-0.648,0.915,0.915,0,0,0-.272-0.665,0.884,0.884,0,0,0-.652-0.275A0.931,0.931,0,0,0,122,172.356Zm1.308,10.324v-7.415h-1.28v7.415h1.28Zm8.533-1.7a2.268,2.268,0,0,1-1.779.718,2.306,2.306,0,0,1-1.827-.73,3.029,3.029,0,0,1-.645-2.074,2.826,2.826,0,0,1,.64-1.969,2.546,2.546,0,0,1,3.574.056,2.9,2.9,0,0,1,.681,2.01A2.872,2.872,0,0,1,131.84,180.982Zm0.611-5.717v1.378a2.9,2.9,0,0,0-1.1-1.228,3.091,3.091,0,0,0-1.62-.417,3.226,3.226,0,0,0-2.537,1.066,4.8,4.8,0,0,0,.029,5.765,3.292,3.292,0,0,0,2.572,1.086,2.943,2.943,0,0,0,1.564-.425,3.143,3.143,0,0,0,1.127-1.22v1.248a5.639,5.639,0,0,1-.073,1.045,1.944,1.944,0,0,1-.243.641,1.785,1.785,0,0,1-.823.733,3.1,3.1,0,0,1-1.3.247,2.57,2.57,0,0,1-1.629-.454,1.543,1.543,0,0,1-.575-1.288v-0.1h-1.427a2.763,2.763,0,0,0,.985,2.18,4.051,4.051,0,0,0,2.629.769,5,5,0,0,0,1.723-.275,3.22,3.22,0,0,0,1.268-.835,2.436,2.436,0,0,0,.535-0.916,6.338,6.338,0,0,0,.162-1.717v-7.286h-1.265Zm5.919,7.415v-3.833a5.594,5.594,0,0,1,.1-1.3,1.787,1.787,0,0,1,.336-0.665,2.029,2.029,0,0,1,.774-0.587,2.515,2.515,0,0,1,1.033-.207,1.833,1.833,0,0,1,1.463.547,2.5,2.5,0,0,1,.474,1.673v4.368h1.3v-5.048a2.539,2.539,0,0,0-.737-1.937,2.865,2.865,0,0,0-2.05-.7,3.338,3.338,0,0,0-1.556.348,3.12,3.12,0,0,0-1.151,1.062V170.12h-1.24v12.56h1.256Zm9.015,0h1.3v-6.369h1.362v-1.046h-1.362v-2.99h-1.3v2.99h-1.362v1.046h1.362v6.369Zm5.676-4.546a2.167,2.167,0,0,1,2.252-2.042,2.312,2.312,0,0,1,1.609.531,2.13,2.13,0,0,1,.652,1.511h-4.513Zm5.875,0.778a4.107,4.107,0,0,0-.961-2.877,3.35,3.35,0,0,0-2.6-1.053,3.485,3.485,0,0,0-2.666,1.11,4.009,4.009,0,0,0-1.037,2.852,4.123,4.123,0,0,0,1.045,2.934A3.577,3.577,0,0,0,155.451,183a3.71,3.71,0,0,0,3.436-2.026l-0.964-.648a3.515,3.515,0,0,1-1.062,1.212,2.368,2.368,0,0,1-1.345.4,2.311,2.311,0,0,1-1.775-.734,2.714,2.714,0,0,1-.68-1.924v-0.114h5.875v-0.251Zm4.014,3.768v-3.614a3.856,3.856,0,0,1,.5-2.184,1.711,1.711,0,0,1,1.507-.725,2.053,2.053,0,0,1,.373.036,3.234,3.234,0,0,1,.413.11l0.421-1.143a2.609,2.609,0,0,0-.421-0.109,2.505,2.505,0,0,0-.438-0.037,2.344,2.344,0,0,0-1.4.413,3.945,3.945,0,0,0-1.086,1.378v-1.54h-1.126v7.415h1.256ZM178.4,175l-2.253,5.324-1.977-5.057h-1.41l3.306,7.877,2.439-5.689,2.44,5.689,3.3-7.877h-1.426l-1.994,5.057L178.605,175h-0.2Zm13,6.025a2.279,2.279,0,0,1-1.778.709,2.312,2.312,0,0,1-1.828-.729,3.038,3.038,0,0,1-.644-2.075,2.822,2.822,0,0,1,.64-1.969,2.535,2.535,0,0,1,3.57.061,2.92,2.92,0,0,1,.685,2.022A2.838,2.838,0,0,1,191.4,181.023Zm0.612-5.758v1.394a3.012,3.012,0,0,0-1.106-1.244,3.046,3.046,0,0,0-1.617-.417,3.205,3.205,0,0,0-2.536,1.082,4.263,4.263,0,0,0-.948,2.913,4.208,4.208,0,0,0,.976,2.905,3.278,3.278,0,0,0,2.573,1.1,2.911,2.911,0,0,0,1.552-.425,3.254,3.254,0,0,0,1.139-1.236v1.345h1.231v-7.415h-1.264Zm5.757,11.029,4.976-11.029H201.35l-2.285,5.324-2.156-5.324h-1.467l2.909,6.686-2.009,4.343h1.426Zm12.924-3.614h1.3v-6.369h1.362v-1.046h-1.362v-2.99h-1.3v2.99H209.33v1.046h1.362v6.369ZM217.149,177a2.548,2.548,0,0,1,1.909-.815,2.515,2.515,0,0,1,1.888.815,2.931,2.931,0,0,1,0,3.978,2.515,2.515,0,0,1-1.888.815,2.55,2.55,0,0,1-1.905-.815A2.915,2.915,0,0,1,217.149,177Zm-1.827,3.521a4.116,4.116,0,0,0,.875,1.3,4.064,4.064,0,0,0,1.309.871,4.006,4.006,0,0,0,1.552.3,3.894,3.894,0,0,0,1.527-.308,4.169,4.169,0,0,0,1.325-.891,3.8,3.8,0,0,0,.875-1.276,3.924,3.924,0,0,0,.3-1.528,3.982,3.982,0,0,0-.3-1.536,3.786,3.786,0,0,0-.875-1.284,4.141,4.141,0,0,0-1.317-.875,3.974,3.974,0,0,0-1.535-.3,4.1,4.1,0,0,0-1.556.3,3.976,3.976,0,0,0-1.305.863,3.9,3.9,0,0,0-.875,1.292,4,4,0,0,0-.3,1.544A3.912,3.912,0,0,0,215.322,180.525Zm17.656,2.155V170.12h-1.3v12.56h1.3Zm8.516-1.657a2.28,2.28,0,0,1-1.779.709,2.311,2.311,0,0,1-1.827-.729,3.038,3.038,0,0,1-.644-2.075,2.822,2.822,0,0,1,.64-1.969,2.535,2.535,0,0,1,3.57.061,2.92,2.92,0,0,1,.684,2.022A2.837,2.837,0,0,1,241.494,181.023Zm0.612-5.758v1.394A3.019,3.019,0,0,0,241,175.415a3.051,3.051,0,0,0-1.617-.417,3.2,3.2,0,0,0-2.536,1.082,4.263,4.263,0,0,0-.948,2.913,4.208,4.208,0,0,0,.976,2.905,3.278,3.278,0,0,0,2.573,1.1,2.911,2.911,0,0,0,1.552-.425,3.244,3.244,0,0,0,1.138-1.236v1.345h1.232v-7.415h-1.264Zm5.757,11.029,4.975-11.029h-1.393l-2.286,5.324L247,175.265h-1.467l2.909,6.686-2.009,4.343h1.426Zm7.75-8.16a2.167,2.167,0,0,1,2.253-2.042,2.307,2.307,0,0,1,1.608.531,2.135,2.135,0,0,1,.653,1.511h-4.514Zm5.875,0.778a4.111,4.111,0,0,0-.96-2.877,3.351,3.351,0,0,0-2.605-1.053,3.485,3.485,0,0,0-2.666,1.11,4.009,4.009,0,0,0-1.038,2.852,4.123,4.123,0,0,0,1.046,2.934A3.576,3.576,0,0,0,258,183a3.713,3.713,0,0,0,3.436-2.026l-0.965-.648a3.524,3.524,0,0,1-1.061,1.212,2.372,2.372,0,0,1-1.346.4,2.309,2.309,0,0,1-1.774-.734,2.714,2.714,0,0,1-.681-1.924v-0.114h5.875v-0.251Zm4.015,3.768v-3.614a3.857,3.857,0,0,1,.5-2.184,1.712,1.712,0,0,1,1.507-.725,2.045,2.045,0,0,1,.373.036,3.149,3.149,0,0,1,.413.11l0.422-1.143a2.62,2.62,0,0,0-.422-0.109,2.486,2.486,0,0,0-.437-0.037,2.342,2.342,0,0,0-1.4.413,3.922,3.922,0,0,0-1.086,1.378v-1.54h-1.126v7.415H265.5Zm4.172-.125a0.951,0.951,0,0,0,.685.271,0.973,0.973,0,0,0,.7-0.271,0.89,0.89,0,0,0,.284-0.669,0.919,0.919,0,0,0-.288-0.685,0.96,0.96,0,0,0-.693-0.279,0.966,0.966,0,0,0-.964.964A0.9,0.9,0,0,0,269.675,182.555Z"/>
  <path id="shop_the_lorem_ipsum_dolor_sit_amet_consectetur_adipisicing_el" data-name="shop the lorem ipsum dolor sit amet, consectetur adipisicing el" class="cls-1" d="M199.057,435.353a4.6,4.6,0,0,0,1.415.955,4.207,4.207,0,0,0,1.632.305,3.379,3.379,0,0,0,2.39-.829,2.846,2.846,0,0,0,.9-2.194,2.886,2.886,0,0,0-.159-0.982,2.089,2.089,0,0,0-.462-0.759,4.392,4.392,0,0,0-1.881-.849l-0.106-.029a2.513,2.513,0,0,1-.893-0.37,0.634,0.634,0,0,1-.232-0.515,0.626,0.626,0,0,1,.264-0.519,1.093,1.093,0,0,1,.685-0.2,2.171,2.171,0,0,1,.83.173,3.063,3.063,0,0,1,.817.513l0.732-1.682a4.344,4.344,0,0,0-1.2-.577,4.66,4.66,0,0,0-1.344-.191,2.984,2.984,0,0,0-2.136.777,2.632,2.632,0,0,0-.823,2.007,2.071,2.071,0,0,0,.521,1.494,3.856,3.856,0,0,0,1.781.885,3.314,3.314,0,0,1,1.181.477,0.834,0.834,0,0,1,.261.659,0.8,0.8,0,0,1-.3.639,1.161,1.161,0,0,1-.771.252,2,2,0,0,1-1.01-.293,4.234,4.234,0,0,1-1.029-.885Zm13.584,1.032v-3.493h3.117v3.493H218.1v-8.578h-2.344v3.334h-3.117v-3.334H210.3v8.578h2.338Zm19.347-6.006a4.4,4.4,0,0,0-.987-1.447,4.535,4.535,0,0,0-1.491-.976,4.692,4.692,0,0,0-3.522,0,4.474,4.474,0,0,0-1.479.976,4.333,4.333,0,0,0-1,1.45,4.534,4.534,0,0,0,0,3.46,4.334,4.334,0,0,0,1,1.453,4.471,4.471,0,0,0,1.479.975,4.669,4.669,0,0,0,3.513,0,4.677,4.677,0,0,0,1.5-.975A4.5,4.5,0,0,0,231.988,430.379Zm-5.856,3.545a2.9,2.9,0,0,1,.008-3.613,2.15,2.15,0,0,1,3.208,0,2.855,2.855,0,0,1,.009,3.6A2.182,2.182,0,0,1,226.132,433.924Zm13.455-.369h0.82a7.194,7.194,0,0,0,1.577-.123,2.288,2.288,0,0,0,.855-0.405,2.353,2.353,0,0,0,.727-0.958,3.449,3.449,0,0,0,.246-1.35,3.332,3.332,0,0,0-.249-1.31,2.526,2.526,0,0,0-.724-0.981,2.37,2.37,0,0,0-.984-0.481,9.8,9.8,0,0,0-2.016-.14H237.4v8.578h2.191v-2.83Zm0-3.9h0.469a2.133,2.133,0,0,1,1.16.229,0.867,0.867,0,0,1,.328.767,0.889,0.889,0,0,1-.334.788,2.168,2.168,0,0,1-1.178.232h-0.445v-2.016Zm19.944,6.733v-6.551h1.922v-2.027h-6.182v2.027h1.922v6.551h2.338Zm9,0v-3.493h3.117v3.493H274v-8.578h-2.344v3.334h-3.117v-3.334H266.2v8.578h2.338Zm16.139,0v-1.922H281.7v-1.447H284.5v-1.84H281.7v-1.489h2.977v-1.88h-5.256v8.578h5.256Zm17.747,0v-2h-2.907v-6.574h-2.338v8.578h5.245Zm13-6.006a4.4,4.4,0,0,0-.987-1.447,4.535,4.535,0,0,0-1.491-.976,4.692,4.692,0,0,0-3.522,0,4.464,4.464,0,0,0-1.479.976,4.333,4.333,0,0,0-1,1.45,4.534,4.534,0,0,0,0,3.46,4.334,4.334,0,0,0,1,1.453,4.461,4.461,0,0,0,1.479.975,4.669,4.669,0,0,0,3.513,0,4.677,4.677,0,0,0,1.5-.975A4.5,4.5,0,0,0,315.415,430.379Zm-5.856,3.545a2.9,2.9,0,0,1,.008-3.613,2.15,2.15,0,0,1,3.208,0,2.855,2.855,0,0,1,.009,3.6A2.182,2.182,0,0,1,309.559,433.924Zm13.455,2.461v-3.358l1.969,3.358h2.642l-2.337-3.457a2.387,2.387,0,0,0,1.426-.829,2.553,2.553,0,0,0,.49-1.621,2.86,2.86,0,0,0-.25-1.2,2.314,2.314,0,0,0-.711-0.9,2.563,2.563,0,0,0-.976-0.443,10.2,10.2,0,0,0-2-.131h-2.443v8.578h2.191Zm0-6.78h0.469a1.71,1.71,0,0,1,1.093.273,1.138,1.138,0,0,1,.325.917,0.936,0.936,0,0,1-.349.808,1.871,1.871,0,0,1-1.1.258h-0.434v-2.256Zm14.358,6.78v-1.922H334.4v-1.447H337.2v-1.84H334.4v-1.489h2.977v-1.88h-5.256v8.578h5.256Zm13.666-8.578h-2.32l-1.307,4.412c-0.074.261-.133,0.485-0.175,0.671a4,4,0,0,0-.088.506,5.77,5.77,0,0,0-.229-1.013c-0.023-.071-0.039-0.121-0.047-0.153l-1.3-4.423h-2.314l-1.324,8.578h2.173l0.5-3.709q0.065-.476.112-0.952t0.082-.964a9.337,9.337,0,0,0,.322,1.353c0.031,0.114.055,0.2,0.07,0.252l1.166,4.02h1.559l1.166-4.02c0.016-.055.041-0.138,0.076-0.252a10.438,10.438,0,0,0,.322-1.359c0.024,0.379.05,0.728,0.079,1.049s0.062,0.611.1,0.873l0.5,3.709h2.186Zm15.954,8.578v-8.578h-2.361v8.578h2.361Zm7.678-2.83h0.821a7.184,7.184,0,0,0,1.576-.123,2.288,2.288,0,0,0,.855-0.405,2.345,2.345,0,0,0,.727-0.958,3.449,3.449,0,0,0,.246-1.35,3.332,3.332,0,0,0-.249-1.31,2.516,2.516,0,0,0-.724-0.981,2.364,2.364,0,0,0-.984-0.481,9.8,9.8,0,0,0-2.016-.14h-2.443v8.578h2.191v-2.83Zm0-3.9h0.469a2.131,2.131,0,0,1,1.16.229,0.867,0.867,0,0,1,.328.767,0.889,0.889,0,0,1-.334.788,2.167,2.167,0,0,1-1.177.232H374.67v-2.016Zm8.341,5.7a4.6,4.6,0,0,0,1.415.955,4.205,4.205,0,0,0,1.631.305,3.382,3.382,0,0,0,2.391-.829,2.846,2.846,0,0,0,.9-2.194,2.886,2.886,0,0,0-.159-0.982,2.091,2.091,0,0,0-.463-0.759,4.38,4.38,0,0,0-1.88-.849l-0.106-.029a2.513,2.513,0,0,1-.893-0.37,0.634,0.634,0,0,1-.232-0.515,0.626,0.626,0,0,1,.264-0.519,1.093,1.093,0,0,1,.685-0.2,2.163,2.163,0,0,1,.829.173,3.052,3.052,0,0,1,.818.513l0.732-1.682a4.344,4.344,0,0,0-1.2-.577,4.662,4.662,0,0,0-1.345-.191,2.982,2.982,0,0,0-2.135.777,2.633,2.633,0,0,0-.824,2.007,2.071,2.071,0,0,0,.522,1.494,3.856,3.856,0,0,0,1.781.885,3.314,3.314,0,0,1,1.181.477,0.834,0.834,0,0,1,.261.659,0.8,0.8,0,0,1-.3.639,1.161,1.161,0,0,1-.771.252,2,2,0,0,1-1.01-.293,4.234,4.234,0,0,1-1.029-.885Zm11.193-3.9v0.891a9.121,9.121,0,0,0,.173,2.083,2.866,2.866,0,0,0,.571,1.145,2.685,2.685,0,0,0,1.21.782,6.794,6.794,0,0,0,3.73,0,2.637,2.637,0,0,0,1.207-.782,2.8,2.8,0,0,0,.574-1.145,9.278,9.278,0,0,0,.17-2.083v-4.535h-2.326v4.171a12.973,12.973,0,0,1-.047,1.322,2.558,2.558,0,0,1-.158.671,1,1,0,0,1-.472.5,1.74,1.74,0,0,1-.811.172,1.76,1.76,0,0,1-.815-0.172,0.972,0.972,0,0,1-.469-0.5,2.558,2.558,0,0,1-.158-0.671,12.973,12.973,0,0,1-.047-1.322v-4.171H394.2v3.644Zm21.53-3.644h-2.32l-1.307,4.412q-0.111.392-.176,0.671a4.189,4.189,0,0,0-.088.506,5.667,5.667,0,0,0-.228-1.013c-0.024-.071-0.039-0.121-0.047-0.153l-1.295-4.423h-2.314l-1.325,8.578h2.174l0.5-3.709q0.065-.476.111-0.952t0.082-.964a9.5,9.5,0,0,0,.323,1.353c0.031,0.114.054,0.2,0.07,0.252l1.166,4.02h1.559l1.166-4.02c0.015-.055.041-0.138,0.076-0.252a10.605,10.605,0,0,0,.322-1.359c0.024,0.379.05,0.728,0.079,1.049s0.062,0.611.1,0.873l0.5,3.709h2.185Zm15.321,8.578h0.393a11.971,11.971,0,0,0,2.472-.185,4.045,4.045,0,0,0,1.418-.618,3.675,3.675,0,0,0,1.237-1.456,5.078,5.078,0,0,0,0-4.049,3.675,3.675,0,0,0-1.237-1.456,4.069,4.069,0,0,0-1.456-.627,14.6,14.6,0,0,0-2.827-.187h-1.787v8.578h1.787Zm0.527-6.662h0.393a2.934,2.934,0,0,1,2.01.574,2.323,2.323,0,0,1,.633,1.8,2.294,2.294,0,0,1-.633,1.8,2.966,2.966,0,0,1-2.01.566h-0.393v-4.74Zm18.943,0.656a4.384,4.384,0,0,0-.987-1.447,4.535,4.535,0,0,0-1.491-.976,4.692,4.692,0,0,0-3.522,0,4.474,4.474,0,0,0-1.479.976,4.333,4.333,0,0,0-1,1.45,4.534,4.534,0,0,0,0,3.46,4.334,4.334,0,0,0,1,1.453,4.471,4.471,0,0,0,1.479.975,4.669,4.669,0,0,0,3.513,0,4.677,4.677,0,0,0,1.5-.975A4.5,4.5,0,0,0,450.525,430.379Zm-5.856,3.545a2.9,2.9,0,0,1,.009-3.613,2.15,2.15,0,0,1,3.208,0,2.857,2.857,0,0,1,.008,3.6A2.182,2.182,0,0,1,444.669,433.924Zm16.508,2.461v-2h-2.906v-6.574h-2.338v8.578h5.244Zm13-6.006a4.384,4.384,0,0,0-.987-1.447,4.535,4.535,0,0,0-1.491-.976,4.692,4.692,0,0,0-3.522,0,4.484,4.484,0,0,0-1.479.976,4.347,4.347,0,0,0-1,1.45,4.534,4.534,0,0,0,0,3.46,4.349,4.349,0,0,0,1,1.453,4.482,4.482,0,0,0,1.479.975,4.685,4.685,0,0,0,5.013-.975A4.5,4.5,0,0,0,474.172,430.379Zm-5.856,3.545a2.9,2.9,0,0,1,.009-3.613,2.15,2.15,0,0,1,3.208,0,2.859,2.859,0,0,1,.009,3.6A2.183,2.183,0,0,1,468.316,433.924Zm13.455,2.461v-3.358l1.969,3.358h2.643l-2.338-3.457a2.389,2.389,0,0,0,1.427-.829,2.553,2.553,0,0,0,.489-1.621,2.859,2.859,0,0,0-.249-1.2,2.307,2.307,0,0,0-.712-0.9,2.556,2.556,0,0,0-.976-0.443,10.2,10.2,0,0,0-2-.131H479.58v8.578h2.191Zm0-6.78h0.469a1.71,1.71,0,0,1,1.093.273,1.135,1.135,0,0,1,.325.917,0.938,0.938,0,0,1-.348.808,1.877,1.877,0,0,1-1.105.258h-0.434v-2.256Zm15.784,5.748a4.622,4.622,0,0,0,1.415.955,4.214,4.214,0,0,0,1.632.305,3.382,3.382,0,0,0,2.391-.829,2.845,2.845,0,0,0,.9-2.194,2.886,2.886,0,0,0-.158-0.982,2.091,2.091,0,0,0-.463-0.759,4.385,4.385,0,0,0-1.881-.849l-0.105-.029a2.529,2.529,0,0,1-.894-0.37,0.636,0.636,0,0,1-.231-0.515,0.626,0.626,0,0,1,.264-0.519,1.092,1.092,0,0,1,.685-0.2,2.163,2.163,0,0,1,.829.173,3.052,3.052,0,0,1,.818.513l0.732-1.682a4.344,4.344,0,0,0-1.2-.577,4.662,4.662,0,0,0-1.345-.191,2.982,2.982,0,0,0-2.135.777,2.633,2.633,0,0,0-.824,2.007,2.071,2.071,0,0,0,.522,1.494,3.851,3.851,0,0,0,1.781.885,3.314,3.314,0,0,1,1.181.477,0.837,0.837,0,0,1,.26.659,0.8,0.8,0,0,1-.3.639,1.163,1.163,0,0,1-.771.252,2.01,2.01,0,0,1-1.011-.293,4.25,4.25,0,0,1-1.028-.885Zm13.667,1.032v-8.578h-2.361v8.578h2.361Zm9.061,0v-6.551h1.922v-2.027h-6.182v2.027h1.922v6.551h2.338Z"/>
  <path id="Shape_2_copy" data-name="Shape 2 copy" class="cls-1" d="M1057,109v-1h155v1H1057Z"/>
  <path id="Shape_2_copy_2" data-name="Shape 2 copy 2" class="cls-1" d="M1057,135v-1h160v1H1057Z"/>
  <path id="shop_the_lorem_ipsum_dolor_sit_amet_consectetur_adipisicing_el-2" data-name="shop the lorem ipsum dolor sit amet, consectetur adipisicing el" class="cls-1" d="M1057.06,102.353a4.556,4.556,0,0,0,1.41.955,4.225,4.225,0,0,0,1.63.3,3.36,3.36,0,0,0,2.39-.829,2.841,2.841,0,0,0,.9-2.194,2.79,2.79,0,0,0-.16-0.982,2.057,2.057,0,0,0-.46-0.759,4.389,4.389,0,0,0-1.88-.85l-0.11-.029a2.456,2.456,0,0,1-.89-0.369,0.65,0.65,0,0,1-.23-0.516,0.637,0.637,0,0,1,.26-0.519,1.12,1.12,0,0,1,.69-0.2,2.183,2.183,0,0,1,.83.173,2.941,2.941,0,0,1,.81.513l0.74-1.682a4.318,4.318,0,0,0-1.21-.577,4.626,4.626,0,0,0-1.34-.191,2.991,2.991,0,0,0-2.14.776,2.627,2.627,0,0,0-.82,2.007,2.061,2.061,0,0,0,.52,1.494,3.855,3.855,0,0,0,1.78.885,3.3,3.3,0,0,1,1.18.478,0.814,0.814,0,0,1,.26.659,0.8,0.8,0,0,1-.3.639,1.162,1.162,0,0,1-.77.252,2,2,0,0,1-1.01-.293,4.237,4.237,0,0,1-1.03-.885Zm13.58,1.032V99.893h3.12v3.493h2.34V94.807h-2.34v3.334h-3.12V94.807h-2.34v8.579h2.34Zm19.35-6.006a4.435,4.435,0,0,0-.99-1.447,4.674,4.674,0,0,0-5.01-.976,4.69,4.69,0,0,0-2.49,2.426,4.572,4.572,0,0,0,0,3.46,4.678,4.678,0,0,0,2.49,2.428,4.661,4.661,0,0,0,3.51,0,4.721,4.721,0,0,0,1.5-.975,4.52,4.52,0,0,0,.99-1.447A4.595,4.595,0,0,0,1089.99,97.379Zm-5.86,3.545a2.887,2.887,0,0,1,.01-3.613,2.15,2.15,0,0,1,3.21,0,2.594,2.594,0,0,1,.64,1.8,2.631,2.631,0,0,1-.63,1.8A2.188,2.188,0,0,1,1084.13,100.924Zm13.46-.369h0.82a7.084,7.084,0,0,0,1.57-.123,2.282,2.282,0,0,0,.86-0.405,2.413,2.413,0,0,0,.73-0.958,3.527,3.527,0,0,0,.24-1.351,3.261,3.261,0,0,0-.25-1.309,2.432,2.432,0,0,0-.72-0.981,2.379,2.379,0,0,0-.99-0.48,9.673,9.673,0,0,0-2.01-.141h-2.44v8.579h2.19v-2.83Zm0-3.9h0.47a2.152,2.152,0,0,1,1.16.229,1.093,1.093,0,0,1-.01,1.556,2.186,2.186,0,0,1-1.18.231h-0.44V96.652Zm19.94,6.733V96.834h1.92V94.807h-6.18v2.027h1.92v6.551h2.34Zm9,0V99.893h3.12v3.493h2.34V94.807h-2.34v3.334h-3.12V94.807h-2.33v8.579h2.33Zm16.14,0v-1.922h-2.97v-1.447h2.8v-1.84h-2.8V96.687h2.97V94.807h-5.25v8.579h5.25Zm17.75,0v-2h-2.91V94.807h-2.33v8.579h5.24Zm13-6.006a4.435,4.435,0,0,0-.99-1.447,4.581,4.581,0,0,0-1.49-.976,4.664,4.664,0,0,0-1.76-.343,4.59,4.59,0,0,0-1.76.343,4.338,4.338,0,0,0-1.48.976,4.271,4.271,0,0,0-1.01,1.45,4.572,4.572,0,0,0,0,3.46,4.264,4.264,0,0,0,1.01,1.453,4.327,4.327,0,0,0,1.48.975,4.661,4.661,0,0,0,3.51,0,4.721,4.721,0,0,0,1.5-.975,4.361,4.361,0,0,0,1.33-3.182A4.581,4.581,0,0,0,1173.42,97.379Zm-5.86,3.545a2.625,2.625,0,0,1-.63-1.811,2.591,2.591,0,0,1,.64-1.8,2.15,2.15,0,0,1,3.21,0,2.856,2.856,0,0,1,0,3.6A2.176,2.176,0,0,1,1167.56,100.924Zm13.45,2.461v-3.358l1.97,3.358h2.65l-2.34-3.457a2.364,2.364,0,0,0,1.42-.829,2.527,2.527,0,0,0,.49-1.62,2.8,2.8,0,0,0-.25-1.2,2.243,2.243,0,0,0-.71-0.9,2.553,2.553,0,0,0-.97-0.442,10.245,10.245,0,0,0-2-.132h-2.45v8.579h2.19Zm0-6.78h0.47a1.745,1.745,0,0,1,1.1.272,1.159,1.159,0,0,1,.32.917,0.946,0.946,0,0,1-.35.809,1.862,1.862,0,0,1-1.1.258h-0.44V96.605Zm14.36,6.78v-1.922h-2.97v-1.447h2.8v-1.84h-2.8V96.687h2.97V94.807h-5.25v8.579h5.25Zm13.67-8.579h-2.32l-1.31,4.412c-0.07.262-.13,0.485-0.17,0.671a2.629,2.629,0,0,0-.09.507,5.708,5.708,0,0,0-.23-1.013c-0.02-.07-0.04-0.121-0.05-0.152l-1.29-4.424h-2.32l-1.32,8.579h2.17l0.51-3.709c0.04-.316.08-0.634,0.11-0.952s0.06-.64.08-0.964a9.836,9.836,0,0,0,.32,1.354c0.03,0.113.06,0.2,0.07,0.252l1.17,4.02h1.56l1.16-4.02c0.02-.055.04-0.139,0.08-0.252a9.761,9.761,0,0,0,.32-1.359c0.02,0.379.05,0.729,0.08,1.049s0.06,0.611.1,0.873l0.5,3.709h2.19ZM1060.15,129.2v-8.578h-2.36V129.2h2.36Zm7.68-2.83h0.82a7.251,7.251,0,0,0,1.58-.123,2.3,2.3,0,0,0,.85-0.405,2.406,2.406,0,0,0,.73-0.958,3.521,3.521,0,0,0,.24-1.35,3.263,3.263,0,0,0-.25-1.31,2.436,2.436,0,0,0-.72-0.981,2.4,2.4,0,0,0-.98-0.481,9.918,9.918,0,0,0-2.02-.14h-2.44V129.2h2.19v-2.83Zm0-3.9h0.47a2.154,2.154,0,0,1,1.16.229,0.866,0.866,0,0,1,.33.768,0.9,0.9,0,0,1-.34.788,2.166,2.166,0,0,1-1.18.231h-0.44v-2.016Zm8.34,5.7a4.573,4.573,0,0,0,1.41.955,4.259,4.259,0,0,0,1.64.3,3.393,3.393,0,0,0,2.39-.829,2.867,2.867,0,0,0,.89-2.194,2.79,2.79,0,0,0-.16-0.981,2.058,2.058,0,0,0-.46-0.759,4.385,4.385,0,0,0-1.88-.85l-0.1-.029a2.521,2.521,0,0,1-.9-0.369,0.65,0.65,0,0,1-.23-0.516,0.635,0.635,0,0,1,.26-0.518,1.119,1.119,0,0,1,.69-0.2,2.187,2.187,0,0,1,.83.173,3.125,3.125,0,0,1,.82.513l0.73-1.682a4.312,4.312,0,0,0-1.21-.577,4.622,4.622,0,0,0-1.34-.19,2.993,2.993,0,0,0-2.14.776,2.665,2.665,0,0,0-.82,2.007,2.06,2.06,0,0,0,.52,1.494,3.862,3.862,0,0,0,1.78.885,3.213,3.213,0,0,1,1.18.477,0.816,0.816,0,0,1,.26.66,0.8,0.8,0,0,1-.3.638,1.162,1.162,0,0,1-.77.252,2.019,2.019,0,0,1-1.01-.293,4.237,4.237,0,0,1-1.03-.885Zm11.19-3.9v0.891a8.753,8.753,0,0,0,.18,2.083,2.741,2.741,0,0,0,.57,1.145,2.651,2.651,0,0,0,1.21.783,5.83,5.83,0,0,0,1.86.26,5.939,5.939,0,0,0,1.87-.26,2.618,2.618,0,0,0,1.2-.783,2.879,2.879,0,0,0,.58-1.145,9.455,9.455,0,0,0,.17-2.083v-4.535h-2.33V124.8a10.581,10.581,0,0,1-.05,1.321,2.7,2.7,0,0,1-.15.671,1.041,1.041,0,0,1-.48.5,1.983,1.983,0,0,1-1.62,0,0.979,0.979,0,0,1-.47-0.5,2.667,2.667,0,0,1-.16-0.671,13.032,13.032,0,0,1-.05-1.321v-4.172h-2.33v3.644Zm21.53-3.644h-2.32l-1.3,4.412c-0.08.262-.14,0.485-0.18,0.671s-0.07.354-.09,0.507a5.7,5.7,0,0,0-.23-1.014,0.84,0.84,0,0,1-.04-0.152l-1.3-4.424h-2.31l-1.33,8.578h2.18l0.5-3.709c0.04-.316.08-0.634,0.11-0.952s0.06-.64.08-0.964a8.735,8.735,0,0,0,.33,1.353c0.03,0.114.05,0.2,0.07,0.252l1.16,4.02h1.56l1.17-4.02c0.01-.054.04-0.138,0.07-0.252a11.744,11.744,0,0,0,.33-1.359c0.02,0.379.05,0.729,0.07,1.049s0.07,0.611.1,0.873l0.51,3.709h2.18Zm15.32,8.578h0.4a11.988,11.988,0,0,0,2.47-.185,4.112,4.112,0,0,0,1.42-.618,3.666,3.666,0,0,0,1.23-1.456,5.089,5.089,0,0,0,0-4.049,3.666,3.666,0,0,0-1.23-1.456,4.128,4.128,0,0,0-1.46-.627,14.555,14.555,0,0,0-2.83-.187h-1.78V129.2h1.78Zm0.53-6.662h0.39a2.927,2.927,0,0,1,2.01.574,2.333,2.333,0,0,1,.64,1.805,2.3,2.3,0,0,1-.64,1.8,2.959,2.959,0,0,1-2.01.565h-0.39v-4.74Zm18.94,0.656a4.4,4.4,0,0,0-.98-1.447,4.528,4.528,0,0,0-1.5-.976,4.687,4.687,0,0,0-3.52,0,4.546,4.546,0,0,0-1.48.976,4.419,4.419,0,0,0,0,6.363,4.546,4.546,0,0,0,1.48.976,4.7,4.7,0,0,0,3.52,0,4.741,4.741,0,0,0,1.5-.976,4.361,4.361,0,0,0,1.33-3.182A4.4,4.4,0,0,0,1143.68,123.2Zm-5.85,3.545a2.625,2.625,0,0,1-.63-1.811,2.59,2.59,0,0,1,.64-1.8,2.139,2.139,0,0,1,3.2,0,2.838,2.838,0,0,1,.01,3.6,2.054,2.054,0,0,1-1.61.715A2.033,2.033,0,0,1,1137.83,126.74Zm16.51,2.461v-2h-2.91v-6.574h-2.34V129.2h5.25Zm12.99-6.006a4.434,4.434,0,0,0-.99-1.447,4.485,4.485,0,0,0-1.49-.976,4.687,4.687,0,0,0-3.52,0,4.546,4.546,0,0,0-1.48.976,4.243,4.243,0,0,0-1,1.45,4.451,4.451,0,0,0,0,3.46,4.235,4.235,0,0,0,1,1.453,4.546,4.546,0,0,0,1.48.976,4.636,4.636,0,0,0,1.76.342,4.585,4.585,0,0,0,1.75-.342,4.528,4.528,0,0,0,1.5-.976,4.221,4.221,0,0,0,.99-1.447A4.594,4.594,0,0,0,1167.33,123.2Zm-5.86,3.545a2.667,2.667,0,0,1-.62-1.811,2.63,2.63,0,0,1,.63-1.8,2.15,2.15,0,0,1,3.21,0,2.6,2.6,0,0,1,.65,1.8,2.635,2.635,0,0,1-.64,1.8A2.188,2.188,0,0,1,1161.47,126.74Zm13.46,2.461v-3.358l1.97,3.358h2.64l-2.34-3.457a2.391,2.391,0,0,0,1.43-.829,2.527,2.527,0,0,0,.49-1.62,2.8,2.8,0,0,0-.25-1.2,2.33,2.33,0,0,0-.71-0.9,2.6,2.6,0,0,0-.98-0.442,10.1,10.1,0,0,0-2-.132h-2.44V129.2h2.19Zm0-6.779h0.47a1.71,1.71,0,0,1,1.09.272,1.128,1.128,0,0,1,.33.917,0.947,0.947,0,0,1-.35.809,1.876,1.876,0,0,1-1.11.257h-0.43v-2.255Zm15.78,5.748a4.732,4.732,0,0,0,1.42.955,4.208,4.208,0,0,0,1.63.3,3.376,3.376,0,0,0,2.39-.829,2.84,2.84,0,0,0,.9-2.194,3.038,3.038,0,0,0-.16-0.981,2.2,2.2,0,0,0-.46-0.759,4.385,4.385,0,0,0-1.88-.85l-0.11-.029a2.452,2.452,0,0,1-.89-0.369,0.621,0.621,0,0,1-.23-0.516,0.61,0.61,0,0,1,.26-0.518,1.069,1.069,0,0,1,.68-0.2,2.149,2.149,0,0,1,.83.173,2.971,2.971,0,0,1,.82.513l0.73-1.682a4.39,4.39,0,0,0-1.2-.577,4.642,4.642,0,0,0-1.35-.19,2.985,2.985,0,0,0-2.13.776,2.629,2.629,0,0,0-.82,2.007,2.06,2.06,0,0,0,.52,1.494,3.811,3.811,0,0,0,1.78.885,3.3,3.3,0,0,1,1.18.477,0.849,0.849,0,0,1,.26.66,0.8,0.8,0,0,1-.3.638,1.162,1.162,0,0,1-.77.252,1.964,1.964,0,0,1-1.01-.293,4.237,4.237,0,0,1-1.03-.885Zm13.67,1.031v-8.578h-2.36V129.2h2.36Zm9.06,0V122.65h1.92v-2.027h-6.18v2.027h1.92V129.2h2.34Z"/>
  <path id="Omar_Nobil_VP_of_Design_dolor_sit_amet_consectetur_adipisicin" data-name="Omar Nobil, VP of Design dolor sit amet, consectetur adipisicin" class="cls-1" d="M127.372,220.646a5.268,5.268,0,0,1-1.167,1.779,4.956,4.956,0,0,1-1.653,1.086,5.281,5.281,0,0,1-1.977.372,4.245,4.245,0,0,1-4.5-4.5,5.593,5.593,0,0,1,1.621-3.947,4.763,4.763,0,0,1,1.6-1.069,5.049,5.049,0,0,1,1.933-.373,4.474,4.474,0,0,1,3.3,1.248,4.4,4.4,0,0,1,1.256,3.266A5.646,5.646,0,0,1,127.372,220.646Zm-6.633-7.455a6.214,6.214,0,0,0-2.1,1.316,6.286,6.286,0,0,0-1.462,2.184,7.147,7.147,0,0,0-.515,2.711,5.48,5.48,0,0,0,5.762,5.778,7.221,7.221,0,0,0,2.617-.474,6.411,6.411,0,0,0,2.148-1.349,6.479,6.479,0,0,0,1.5-2.184,6.8,6.8,0,0,0,.527-2.662,5.608,5.608,0,0,0-1.613-4.2,5.88,5.88,0,0,0-4.3-1.576A7.163,7.163,0,0,0,120.739,213.191Zm16.555,11.673,0.495-3.752a4.713,4.713,0,0,1,.7-2.156,1.657,1.657,0,0,1,1.406-.68,1.212,1.212,0,0,1,1.362,1.361c0,0.114,0,.227-0.012.34s-0.021.227-.037,0.341l-0.6,4.546h1.3l0.616-4.684a0.752,0.752,0,0,1,.008-0.081q0.057-.51.057-0.746a2.211,2.211,0,0,0-.555-1.588,1.976,1.976,0,0,0-1.5-.583,2.969,2.969,0,0,0-1.406.348,3.935,3.935,0,0,0-1.22,1.045,1.751,1.751,0,0,0-.689-1.025,2.131,2.131,0,0,0-1.264-.368,2.746,2.746,0,0,0-1.361.348,3.69,3.69,0,0,0-1.151,1.062l0.17-1.143h-1.232l-0.988,7.415h1.272l0.5-3.752a4.64,4.64,0,0,1,.709-2.127,1.651,1.651,0,0,1,1.4-.709,1.212,1.212,0,0,1,1.362,1.361c0,0.108,0,.219-0.012.332s-0.021.227-.037,0.341l-0.6,4.554h1.313Zm9.829-1.588a2.612,2.612,0,0,1-.652-1.848,3.212,3.212,0,0,1,.786-2.229,2.59,2.59,0,0,1,2.018-.875,1.913,1.913,0,0,1,1.535.7,2.734,2.734,0,0,1,.588,1.824,3.374,3.374,0,0,1-.75,2.236,2.3,2.3,0,0,1-1.835.9A2.2,2.2,0,0,1,147.123,223.276Zm4.558-4.336a2.83,2.83,0,0,0-1.045-1.321,2.99,2.99,0,0,0-1.661-.437,3.523,3.523,0,0,0-2.731,1.2,4.37,4.37,0,0,0-1.086,3.043,3.994,3.994,0,0,0,.891,2.7,2.912,2.912,0,0,0,2.318,1.038,3.2,3.2,0,0,0,1.5-.345,3.538,3.538,0,0,0,1.195-1.065l-0.178,1.11h1.3l0.972-7.415h-1.272Zm8.8-1.6a1.971,1.971,0,0,0-.377-0.122,1.772,1.772,0,0,0-.369-0.04,2.043,2.043,0,0,0-1.146.344,3.928,3.928,0,0,0-1.033,1.1l0.2-1.175h-1.28l-0.973,7.415h1.256l0.47-3.5a5.148,5.148,0,0,1,.7-2.212,1.566,1.566,0,0,1,1.35-.713,1.77,1.77,0,0,1,.437.056,2.166,2.166,0,0,1,.43.163Zm8.564,7.5,1.175-8.712,7.042,9.19,1.621-12.342h-1.41l-1.175,8.825-7.075-9.279-1.588,12.318h1.41ZM186.576,219a2.814,2.814,0,0,1,.7,1.969,3.325,3.325,0,0,1-.794,2.285,2.565,2.565,0,0,1-2.01.9,2.37,2.37,0,0,1-1.827-.75,2.789,2.789,0,0,1-.693-1.973,3.341,3.341,0,0,1,.8-2.3,2.579,2.579,0,0,1,2.022-.9A2.328,2.328,0,0,1,186.576,219Zm-4.9,5.162a3.665,3.665,0,0,0,2.714,1.021,3.938,3.938,0,0,0,3-1.236,4.5,4.5,0,0,0,1.163-3.213A3.378,3.378,0,0,0,187.5,218.2a3.682,3.682,0,0,0-2.666-1.017,4,4,0,0,0-2.982,1.227,4.193,4.193,0,0,0-1.2,3.051A3.647,3.647,0,0,0,181.678,224.159Zm15.076-5.053a2.61,2.61,0,0,1,.648,1.844,3.207,3.207,0,0,1-.786,2.228,2.6,2.6,0,0,1-2.026.876,1.919,1.919,0,0,1-1.532-.7,2.736,2.736,0,0,1-.591-1.832,3.337,3.337,0,0,1,.753-2.224,2.322,2.322,0,0,1,1.84-.9A2.2,2.2,0,0,1,196.754,219.106Zm-4.547,4.315a2.85,2.85,0,0,0,1.05,1.317,2.948,2.948,0,0,0,1.649.442,3.586,3.586,0,0,0,1.6-.365,3.437,3.437,0,0,0,1.248-1.029,4.813,4.813,0,0,0,.709-1.337,4.442,4.442,0,0,0,.247-1.451,4.119,4.119,0,0,0-.883-2.763,2.916,2.916,0,0,0-2.334-1.037,3.141,3.141,0,0,0-1.487.352,3.533,3.533,0,0,0-1.187,1.058l0.851-6.305h-1.3l-1.661,12.561h1.313Zm10.234-8.845a0.857,0.857,0,0,0,.628.264,0.846,0.846,0,0,0,.628-0.26,0.872,0.872,0,0,0,.256-0.64,0.842,0.842,0,0,0-.256-0.62,0.853,0.853,0,0,0-.628-0.255,0.868,0.868,0,0,0-.628.259,0.838,0.838,0,0,0-.263.616A0.867,0.867,0,0,0,202.441,214.576Zm-0.036,10.288,0.981-7.415H202.1l-0.981,7.415h1.289Zm6.478-12.561h-1.3l-1.653,12.561h1.305Zm1.729,14.8,2.5-3.727-1.191-.746L209.8,226.59Zm14.528-1.774L231.631,213h-1.58l-4.53,8.89L223.333,213h-1.5ZM235,214.272h1.029a6.764,6.764,0,0,1,1.167.073,1.838,1.838,0,0,1,.64.244,1.55,1.55,0,0,1,.595.64,2.028,2.028,0,0,1,.2.924,2.416,2.416,0,0,1-.292,1.207,1.8,1.8,0,0,1-.834.77,2.782,2.782,0,0,1-.758.21,10.039,10.039,0,0,1-1.349.065H234.43Zm-1.41,10.592,0.68-5.211h1.062a10.4,10.4,0,0,0,2.249-.174,3.2,3.2,0,0,0,1.219-.571,3.125,3.125,0,0,0,.956-1.2,3.823,3.823,0,0,0,.325-1.608,3.332,3.332,0,0,0-.272-1.366,2.689,2.689,0,0,0-.79-1.025,2.926,2.926,0,0,0-1.135-.551,10.512,10.512,0,0,0-2.236-.162h-1.913l-1.555,11.864h1.41ZM253,219a2.814,2.814,0,0,1,.7,1.969,3.325,3.325,0,0,1-.794,2.285,2.565,2.565,0,0,1-2.01.9,2.37,2.37,0,0,1-1.827-.75,2.789,2.789,0,0,1-.693-1.973,3.341,3.341,0,0,1,.8-2.3,2.579,2.579,0,0,1,2.022-.9A2.328,2.328,0,0,1,253,219Zm-4.9,5.162a3.669,3.669,0,0,0,2.715,1.021,3.94,3.94,0,0,0,3-1.236,4.5,4.5,0,0,0,1.162-3.213,3.377,3.377,0,0,0-1.053-2.532,3.682,3.682,0,0,0-2.666-1.017,4,4,0,0,0-2.982,1.227,4.194,4.194,0,0,0-1.2,3.051A3.651,3.651,0,0,0,248.1,224.159Zm10.96,0.705,0.826-6.337h1.629l0.146-1.078h-1.637l0.308-2.309a4.336,4.336,0,0,1,.373-1.5,0.745,0.745,0,0,1,.672-0.34,1.249,1.249,0,0,1,.333.053,4.5,4.5,0,0,1,.534.206l0.219-1.126a2.706,2.706,0,0,0-.579-0.215,2.582,2.582,0,0,0-.6-0.069,1.8,1.8,0,0,0-1.535.661,5.546,5.546,0,0,0-.734,2.459l-0.283,2.18h-1.378l-0.138,1.078h1.362l-0.827,6.337h1.313Zm12.7-10.592h0.827a12.775,12.775,0,0,1,1.884.106,3.437,3.437,0,0,1,1.106.348,3.547,3.547,0,0,1,1.508,1.52,4.939,4.939,0,0,1,.534,2.346,5.512,5.512,0,0,1-.668,2.767,4.221,4.221,0,0,1-1.884,1.763,4.332,4.332,0,0,1-1.236.344,21.033,21.033,0,0,1-2.532.1h-0.77Zm-0.583,10.592a16.6,16.6,0,0,0,3.61-.276,5.3,5.3,0,0,0,1.949-.915,5.618,5.618,0,0,0,1.71-2.2,7.132,7.132,0,0,0,.616-2.962,6.061,6.061,0,0,0-.734-3.007,4.755,4.755,0,0,0-2.054-1.977,4.6,4.6,0,0,0-1.369-.4,21.8,21.8,0,0,0-2.812-.122h-1.6l-1.556,11.864h2.237Zm17.13-3.712c0-.081,0-0.2,0-0.356a3.829,3.829,0,0,0-.859-2.666,3.091,3.091,0,0,0-2.415-.948,3.72,3.72,0,0,0-2.844,1.219,4.342,4.342,0,0,0-1.134,3.076,3.7,3.7,0,0,0,.976,2.7,3.846,3.846,0,0,0,4.331.584,4.534,4.534,0,0,0,1.427-1.261l-0.892-.729a3.805,3.805,0,0,1-1.069.981,2.394,2.394,0,0,1-1.208.316,2.106,2.106,0,0,1-1.661-.685,2.726,2.726,0,0,1-.608-1.876v-0.13l5.94-.008Q288.3,221.274,288.3,221.152Zm-5.838-.834a2.632,2.632,0,0,1,.9-1.524,2.523,2.523,0,0,1,1.649-.567,2,2,0,0,1,1.5.543,2.176,2.176,0,0,1,.547,1.548h-4.594Zm8.747,4.522a3.807,3.807,0,0,0,1.653.34,2.892,2.892,0,0,0,1.993-.648,2.256,2.256,0,0,0,.73-1.775,1.863,1.863,0,0,0-.373-1.207,3.9,3.9,0,0,0-1.467-.932l-0.13-.057q-1.377-.591-1.377-1.191a0.954,0.954,0,0,1,.389-0.758,1.444,1.444,0,0,1,.948-0.32,2.191,2.191,0,0,1,1.831.916l0.778-.932a3.466,3.466,0,0,0-1.142-.819,3.425,3.425,0,0,0-1.378-.275,2.833,2.833,0,0,0-1.937.66,2.139,2.139,0,0,0-.753,1.682,1.716,1.716,0,0,0,.348,1.1,4.189,4.189,0,0,0,1.41.948q0.171,0.089.462,0.227a1.545,1.545,0,0,1,1.151,1.134,1.038,1.038,0,0,1-.41.863,1.742,1.742,0,0,1-1.106.32,2.07,2.07,0,0,1-1.138-.328,3.019,3.019,0,0,1-.92-0.984l-0.827.98A3.515,3.515,0,0,0,291.211,224.84Zm8.313-10.264a0.857,0.857,0,0,0,.628.264,0.846,0.846,0,0,0,.628-0.26,0.875,0.875,0,0,0,.255-0.64,0.871,0.871,0,0,0-.883-0.875,0.868,0.868,0,0,0-.628.259,0.835,0.835,0,0,0-.263.616A0.863,0.863,0,0,0,299.524,214.576Zm-0.036,10.288,0.98-7.415H299.18l-0.981,7.415h1.289Zm5.355-1.686a2.588,2.588,0,0,1-.652-1.831,3.128,3.128,0,0,1,.786-2.2,2.612,2.612,0,0,1,2.018-.859,1.923,1.923,0,0,1,1.535.685,2.669,2.669,0,0,1,.588,1.8,3.306,3.306,0,0,1-.754,2.212,2.315,2.315,0,0,1-1.831.891A2.2,2.2,0,0,1,304.843,223.178Zm4.559-4.27a2.708,2.708,0,0,0-1.038-1.293,3.046,3.046,0,0,0-1.669-.433,3.521,3.521,0,0,0-2.727,1.207,4.363,4.363,0,0,0-1.09,3.039,3.772,3.772,0,0,0,.9,2.6,2.945,2.945,0,0,0,2.305,1.017,3.174,3.174,0,0,0,1.5-.348,3.591,3.591,0,0,0,1.2-1.07l-0.13,1.135a3.379,3.379,0,0,1-.741,1.924,2.024,2.024,0,0,1-1.585.677,2.414,2.414,0,0,1-1.689-.551,2.115,2.115,0,0,1-.636-1.572l-1.273.17a2.908,2.908,0,0,0,.92,2.2,3.387,3.387,0,0,0,2.378.818,4.622,4.622,0,0,0,2.014-.376,3.055,3.055,0,0,0,1.277-1.212,8.361,8.361,0,0,0,.745-2.99c0.027-.222.049-0.392,0.065-0.511l0.745-5.891H309.6Zm5.076,5.956,0.5-3.752a4,4,0,0,1,.81-2.111,2.066,2.066,0,0,1,1.645-.725,1.772,1.772,0,0,1,1.184.348,1.263,1.263,0,0,1,.4,1.013c0,0.087-.016.262-0.049,0.527,0,0.065-.011.116-0.016,0.154l-0.584,4.546h1.3l0.616-4.684c0.021-.151.038-0.3,0.049-0.438s0.016-.27.016-0.389a2.078,2.078,0,0,0-.62-1.588,2.354,2.354,0,0,0-1.682-.583,3.141,3.141,0,0,0-1.491.36,4.409,4.409,0,0,0-1.3,1.115l0.17-1.208h-1.232l-0.972,7.415h1.256Z"/>
  <path id="_" data-name="“" class="cls-2" d="M114.988,115.6V81.935a36.443,36.443,0,0,1,2.09-13.64,35.442,35.442,0,0,1,6.49-11.22,36,36,0,0,1,22.66-12.1V59.5q-8.363,2.862-11.44,8.47a28.22,28.22,0,0,0-3.08,13.75h14.52V115.6h-31.24Zm46.86,0V81.935a36.443,36.443,0,0,1,2.09-13.64,35.442,35.442,0,0,1,6.49-11.22,36,36,0,0,1,22.66-12.1V59.5q-8.362,2.862-11.44,8.47a28.22,28.22,0,0,0-3.08,13.75h14.52V115.6h-31.24Z"/>
  <path class="cls-1" d="M199,442v-1H523v1H199Z"/>
</svg>
