<svg id="Copy_copy" data-name="Copy copy" xmlns="http://www.w3.org/2000/svg" width="1280" height="492" viewBox="0 0 1280 492">
  <metadata><?xpacket begin="﻿" id="W5M0MpCehiHzreSzNTczkc9d"?>
<x:xmpmeta xmlns:x="adobe:ns:meta/" x:xmptk="Adobe XMP Core 5.6-c138 79.159824, 2016/09/14-01:09:01        ">
   <rdf:RDF xmlns:rdf="http://www.w3.org/1999/02/22-rdf-syntax-ns#">
      <rdf:Description rdf:about=""/>
   </rdf:RDF>
</x:xmpmeta>
                                                                                                    
                                                                                                    
                                                                                                    
                                                                                                    
                                                                                                    
                                                                                                    
                                                                                                    
                                                                                                    
                                                                                                    
                                                                                                    
                                                                                                    
                                                                                                    
                                                                                                    
                                                                                                    
                                                                                                    
                                                                                                    
                                                                                                    
                                                                                                    
                                                                                                    
                                                                                                    
                           
<?xpacket end="w"?></metadata>
<defs>
    <style>
      .cls-1 {
        fill: #fff;
      }

      .cls-1, .cls-2 {
        fill-rule: evenodd;
      }

      .cls-2 {
        fill: #9e7558;
        mix-blend-mode: multiply;
      }
    </style>
  </defs>
  <path id="Premium_linen._Wrinkled_to_perfection._Our_version_of_playing_i" data-name="Premium linen. Wrinkled to perfection. Our version of playing i" class="cls-1" d="M407.333,304.54h0.4a9.622,9.622,0,0,0,1.925-.138,2.919,2.919,0,0,0,1.066-.462,2.7,2.7,0,0,0,.887-1.11,3.982,3.982,0,0,0,0-3.128,2.7,2.7,0,0,0-.887-1.11,3,3,0,0,0-1.07-.454A9.638,9.638,0,0,0,407.73,298h-2.487v11.864h1.377V304.54h0.713Zm-0.713-5.251h0.713a4.466,4.466,0,0,1,2.427.462,1.831,1.831,0,0,1,.645,1.6,1.667,1.667,0,0,1-.628,1.487,4.784,4.784,0,0,1-2.444.425H406.62v-3.97Zm8.731,10.575V306.25a3.852,3.852,0,0,1,.5-2.184,1.713,1.713,0,0,1,1.508-.726,2.057,2.057,0,0,1,.373.037,3.222,3.222,0,0,1,.413.109l0.421-1.142a2.722,2.722,0,0,0-.421-0.11,2.607,2.607,0,0,0-.438-0.036,2.344,2.344,0,0,0-1.4.413,3.945,3.945,0,0,0-1.086,1.378v-1.54H414.1v7.415h1.256Zm6.13-4.546a2.167,2.167,0,0,1,2.252-2.042,2.316,2.316,0,0,1,1.609.53,2.132,2.132,0,0,1,.652,1.512h-4.513Zm5.875,0.778a4.1,4.1,0,0,0-.961-2.877,3.351,3.351,0,0,0-2.6-1.054,3.487,3.487,0,0,0-2.666,1.111,4.009,4.009,0,0,0-1.037,2.852,4.124,4.124,0,0,0,1.045,2.934,3.577,3.577,0,0,0,2.739,1.118,3.715,3.715,0,0,0,3.436-2.026l-0.964-.648a3.5,3.5,0,0,1-1.062,1.211,2.361,2.361,0,0,1-1.345.4,2.31,2.31,0,0,1-1.775-.733,2.719,2.719,0,0,1-.68-1.925v-0.113h5.875V306.1Zm14.322,3.768v-5.049a2.416,2.416,0,0,0-2.634-2.633,3,3,0,0,0-1.511.372,3.262,3.262,0,0,0-1.13,1.135,2.4,2.4,0,0,0-.957-1.122,2.886,2.886,0,0,0-1.531-.385,2.88,2.88,0,0,0-2.577,1.41v-1.143H430.1v7.415h1.224v-3.833a6.2,6.2,0,0,1,.093-1.305,1.823,1.823,0,0,1,.3-0.656,2.026,2.026,0,0,1,.741-0.588,2.232,2.232,0,0,1,.952-0.206,1.706,1.706,0,0,1,1.394.547,2.579,2.579,0,0,1,.454,1.673v4.368h1.224v-3.833a5.887,5.887,0,0,1,.1-1.28,1.873,1.873,0,0,1,.316-0.681,2.041,2.041,0,0,1,.733-0.588,2.177,2.177,0,0,1,.944-0.206,1.706,1.706,0,0,1,1.394.547,2.579,2.579,0,0,1,.454,1.673v4.368h1.256Zm3.362-10.324a0.907,0.907,0,0,0,.661.267,0.892,0.892,0,0,0,.656-0.267,0.882,0.882,0,0,0,.267-0.648,0.912,0.912,0,0,0-.271-0.665,0.884,0.884,0,0,0-.652-0.275A0.931,0.931,0,0,0,445.04,299.54Zm1.309,10.324v-7.415h-1.28v7.415h1.28Zm3.366-7.415v4.327a3.457,3.457,0,0,0,.859,2.537,3.386,3.386,0,0,0,2.512.867,3.422,3.422,0,0,0,2.529-.863,3.457,3.457,0,0,0,.859-2.541v-4.327h-1.3V306.1a3.926,3.926,0,0,1-.466,2.24,2.332,2.332,0,0,1-3.193-.008,3.881,3.881,0,0,1-.474-2.232v-3.647h-1.329Zm21.624,7.415v-5.049a2.416,2.416,0,0,0-2.634-2.633,3,3,0,0,0-1.511.372,3.272,3.272,0,0,0-1.131,1.135,2.394,2.394,0,0,0-.956-1.122,2.886,2.886,0,0,0-1.531-.385,3.036,3.036,0,0,0-1.475.348,3.067,3.067,0,0,0-1.1,1.062v-1.143h-1.24v7.415h1.223v-3.833a6.108,6.108,0,0,1,.094-1.305,1.839,1.839,0,0,1,.3-0.656,2.021,2.021,0,0,1,.742-0.588,2.228,2.228,0,0,1,.952-0.206,1.707,1.707,0,0,1,1.394.547,2.585,2.585,0,0,1,.454,1.673v4.368h1.223v-3.833a5.871,5.871,0,0,1,.1-1.28,1.857,1.857,0,0,1,.316-0.681,2.033,2.033,0,0,1,.733-0.588,2.177,2.177,0,0,1,.944-0.206,1.707,1.707,0,0,1,1.394.547,2.585,2.585,0,0,1,.454,1.673v4.368h1.256Zm10.411,0V297.3h-1.3v12.561h1.3Zm3.525-10.324a0.9,0.9,0,0,0,.66.267,0.892,0.892,0,0,0,.656-0.267,0.879,0.879,0,0,0,.268-0.648,0.913,0.913,0,0,0-.272-0.665,0.884,0.884,0,0,0-.652-0.275,0.9,0.9,0,0,0-.66.271A0.933,0.933,0,0,0,485.275,299.54Zm1.308,10.324v-7.415H485.3v7.415h1.28Zm4.76,0v-3.833a5.61,5.61,0,0,1,.1-1.3,1.783,1.783,0,0,1,.336-0.664,2.042,2.042,0,0,1,.774-0.588,2.531,2.531,0,0,1,1.033-.206,1.833,1.833,0,0,1,1.463.547,2.5,2.5,0,0,1,.474,1.673v4.368h1.3v-5.049a2.536,2.536,0,0,0-.737-1.936,2.865,2.865,0,0,0-2.05-.7,3.338,3.338,0,0,0-1.556.348,3.1,3.1,0,0,0-1.151,1.062v-1.143h-1.24v7.415h1.256Zm9.566-4.546a2.167,2.167,0,0,1,2.253-2.042,2.315,2.315,0,0,1,1.608.53,2.132,2.132,0,0,1,.652,1.512h-4.513Zm5.875,0.778a4.109,4.109,0,0,0-.96-2.877,3.354,3.354,0,0,0-2.606-1.054,3.487,3.487,0,0,0-2.666,1.111,4.013,4.013,0,0,0-1.037,2.852,4.124,4.124,0,0,0,1.045,2.934,3.577,3.577,0,0,0,2.739,1.118,3.715,3.715,0,0,0,3.436-2.026l-0.964-.648a3.5,3.5,0,0,1-1.062,1.211,2.358,2.358,0,0,1-1.345.4,2.31,2.31,0,0,1-1.775-.733,2.719,2.719,0,0,1-.68-1.925v-0.113h5.875V306.1Zm4,3.768v-3.833a5.684,5.684,0,0,1,.1-1.3,1.8,1.8,0,0,1,.337-0.664,2.042,2.042,0,0,1,.774-0.588,2.531,2.531,0,0,1,1.033-.206,1.833,1.833,0,0,1,1.463.547,2.5,2.5,0,0,1,.474,1.673v4.368h1.3v-5.049a2.536,2.536,0,0,0-.737-1.936,2.865,2.865,0,0,0-2.05-.7,3.338,3.338,0,0,0-1.556.348,3.1,3.1,0,0,0-1.151,1.062v-1.143h-1.24v7.415h1.256Zm9.278-.126a0.946,0.946,0,0,0,.685.272,0.973,0.973,0,0,0,.7-0.272,0.889,0.889,0,0,0,.283-0.668,0.92,0.92,0,0,0-.287-0.685,0.961,0.961,0,0,0-.693-0.28,0.97,0.97,0,0,0-.965.965A0.9,0.9,0,0,0,520.06,309.738Zm14.176,0.588,3.087-9.173,3.1,9.173L545.021,298H543.5l-3.023,8.728-3.168-9.2-3.136,9.2L531.164,298h-1.523Zm13.479-.462V306.25a3.852,3.852,0,0,1,.5-2.184,1.71,1.71,0,0,1,1.507-.726,2.057,2.057,0,0,1,.373.037,3.222,3.222,0,0,1,.413.109l0.421-1.142a2.722,2.722,0,0,0-.421-0.11,2.607,2.607,0,0,0-.438-0.036,2.344,2.344,0,0,0-1.4.413,3.945,3.945,0,0,0-1.086,1.378v-1.54h-1.126v7.415h1.256Zm5.421-10.324a0.906,0.906,0,0,0,.66.267,0.892,0.892,0,0,0,.656-0.267,0.879,0.879,0,0,0,.268-0.648,0.913,0.913,0,0,0-.272-0.665,0.884,0.884,0,0,0-.652-0.275A0.931,0.931,0,0,0,553.136,299.54Zm1.308,10.324v-7.415h-1.28v7.415h1.28Zm4.76,0v-3.833a5.61,5.61,0,0,1,.1-1.3,1.783,1.783,0,0,1,.336-0.664,2.042,2.042,0,0,1,.774-0.588,2.534,2.534,0,0,1,1.033-.206,1.833,1.833,0,0,1,1.463.547,2.5,2.5,0,0,1,.474,1.673v4.368h1.3v-5.049a2.533,2.533,0,0,0-.737-1.936,2.865,2.865,0,0,0-2.05-.7,3.338,3.338,0,0,0-1.556.348,3.1,3.1,0,0,0-1.151,1.062v-1.143h-1.24v7.415H559.2Zm10.109,0V305.95l3.825,3.914h1.774l-4.035-4.019,3.7-3.4h-1.693l-3.574,3.363V297.3h-1.272v12.561h1.272Zm9.087,0V297.3h-1.3v12.561h1.3Zm4.234-4.546a2.167,2.167,0,0,1,2.252-2.042,2.316,2.316,0,0,1,1.609.53,2.132,2.132,0,0,1,.652,1.512h-4.513Zm5.875,0.778a4.1,4.1,0,0,0-.961-2.877,3.351,3.351,0,0,0-2.605-1.054,3.485,3.485,0,0,0-2.666,1.111,4.009,4.009,0,0,0-1.037,2.852,4.124,4.124,0,0,0,1.045,2.934,3.577,3.577,0,0,0,2.739,1.118,3.715,3.715,0,0,0,3.436-2.026l-0.964-.648a3.5,3.5,0,0,1-1.062,1.211,2.361,2.361,0,0,1-1.345.4,2.31,2.31,0,0,1-1.775-.733,2.715,2.715,0,0,1-.68-1.925v-0.113h5.875V306.1Zm7.754,2.123a2.34,2.34,0,0,1-1.827.729,2.169,2.169,0,0,1-1.767-.774,3.265,3.265,0,0,1-.64-2.143,2.712,2.712,0,0,1,.632-1.9,2.263,2.263,0,0,1,1.758-.689,2.339,2.339,0,0,1,1.816.757,2.857,2.857,0,0,1,.688,2A2.911,2.911,0,0,1,596.263,308.219Zm0.628-10.916v6.54a2.847,2.847,0,0,0-2.707-1.661,3.221,3.221,0,0,0-2.544,1.086,4.857,4.857,0,0,0,.02,5.814,3.278,3.278,0,0,0,2.573,1.1,2.9,2.9,0,0,0,1.556-.43,3.208,3.208,0,0,0,1.134-1.231v1.345h1.232V297.3h-1.264Zm10.6,12.561h1.3v-6.37h1.362v-1.045h-1.362v-2.99h-1.3v2.99h-1.362v1.045h1.362v6.37Zm6.458-5.677a2.543,2.543,0,0,1,1.908-.814,2.512,2.512,0,0,1,1.888.814,2.933,2.933,0,0,1,0,3.979,2.513,2.513,0,0,1-1.888.815,2.548,2.548,0,0,1-1.9-.815A2.916,2.916,0,0,1,613.947,304.187Zm-1.828,3.521a4.045,4.045,0,0,0,2.184,2.168,4.006,4.006,0,0,0,1.552.3,3.917,3.917,0,0,0,1.528-.308,4.176,4.176,0,0,0,1.324-.891,3.826,3.826,0,0,0,.876-1.277,3.933,3.933,0,0,0,.3-1.527,4,4,0,0,0-.3-1.536,3.794,3.794,0,0,0-.876-1.284,4.132,4.132,0,0,0-1.316-.875,3.982,3.982,0,0,0-1.536-.3,4.1,4.1,0,0,0-1.556.295,3.992,3.992,0,0,0-1.3.863,3.911,3.911,0,0,0-.875,1.293,4,4,0,0,0-.3,1.544A3.907,3.907,0,0,0,612.119,307.708Zm18.183-3.565a2.329,2.329,0,0,1,1.823-.738,2.162,2.162,0,0,1,1.771.778,3.3,3.3,0,0,1,.636,2.148,2.71,2.71,0,0,1-.636,1.912,2.26,2.26,0,0,1-1.746.689,2.352,2.352,0,0,1-1.824-.754,2.85,2.85,0,0,1-.688-2A2.926,2.926,0,0,1,630.3,304.143Zm-0.632,9.335v-4.959a3.076,3.076,0,0,0,1.11,1.244,3,3,0,0,0,1.6.417,3.226,3.226,0,0,0,2.548-1.082,4.263,4.263,0,0,0,.952-2.921,4.205,4.205,0,0,0-.972-2.9,3.277,3.277,0,0,0-2.577-1.094,2.965,2.965,0,0,0-1.572.429,3.145,3.145,0,0,0-1.135,1.232v-1.394h-1.207v11.029h1.256Zm9.809-8.16a2.167,2.167,0,0,1,2.252-2.042,2.316,2.316,0,0,1,1.609.53,2.132,2.132,0,0,1,.652,1.512h-4.513Zm5.875,0.778a4.1,4.1,0,0,0-.961-2.877,3.351,3.351,0,0,0-2.605-1.054,3.485,3.485,0,0,0-2.666,1.111,4.009,4.009,0,0,0-1.037,2.852,4.124,4.124,0,0,0,1.045,2.934,3.577,3.577,0,0,0,2.739,1.118,3.715,3.715,0,0,0,3.436-2.026l-0.964-.648a3.5,3.5,0,0,1-1.062,1.211,2.361,2.361,0,0,1-1.345.4,2.31,2.31,0,0,1-1.775-.733,2.715,2.715,0,0,1-.68-1.925v-0.113h5.875V306.1Zm4.014,3.768V306.25a3.852,3.852,0,0,1,.5-2.184,1.711,1.711,0,0,1,1.507-.726,2.057,2.057,0,0,1,.373.037,3.222,3.222,0,0,1,.413.109l0.421-1.142a2.722,2.722,0,0,0-.421-0.11,2.6,2.6,0,0,0-.438-0.036,2.344,2.344,0,0,0-1.4.413,3.932,3.932,0,0,0-1.085,1.378v-1.54h-1.127v7.415h1.256Zm7,0v-6.37h1.945v-1.045h-1.977v-1.977a4.354,4.354,0,0,1,.21-1.751,0.82,0.82,0,0,1,.77-0.356,2,2,0,0,1,.507.065,2.082,2.082,0,0,1,.49.2V297.32a2.76,2.76,0,0,0-.523-0.13,3.865,3.865,0,0,0-.571-0.041,1.924,1.924,0,0,0-1.674.653,4.655,4.655,0,0,0-.466,2.5v2.147h-1.426v1.045h1.426v6.37h1.289Zm4.752-4.546a2.167,2.167,0,0,1,2.253-2.042,2.315,2.315,0,0,1,1.608.53,2.137,2.137,0,0,1,.653,1.512h-4.514ZM667,306.1a4.109,4.109,0,0,0-.96-2.877,3.353,3.353,0,0,0-2.606-1.054,3.488,3.488,0,0,0-2.666,1.111,4.013,4.013,0,0,0-1.037,2.852,4.129,4.129,0,0,0,1.045,2.934,3.577,3.577,0,0,0,2.739,1.118,3.715,3.715,0,0,0,3.436-2.026l-0.964-.648a3.5,3.5,0,0,1-1.062,1.211,2.358,2.358,0,0,1-1.345.4,2.307,2.307,0,0,1-1.774-.733,2.715,2.715,0,0,1-.681-1.925v-0.113H667V306.1Zm7.272,2.65a3.24,3.24,0,0,1-1.126.2,2.556,2.556,0,0,1-1.9-.77,2.616,2.616,0,0,1-.757-1.912,2.873,2.873,0,0,1,.753-2.079,2.655,2.655,0,0,1,2-.782,3.448,3.448,0,0,1,1.053.166,4.176,4.176,0,0,1,1,.483v-1.362a5.032,5.032,0,0,0-1.106-.381,5.6,5.6,0,0,0-1.2-.129,3.685,3.685,0,0,0-2.78,1.13,4.032,4.032,0,0,0-1.086,2.913,3.956,3.956,0,0,0,1.05,2.865,3.663,3.663,0,0,0,2.767,1.09,5.843,5.843,0,0,0,1.358-.15,4.01,4.01,0,0,0,1.13-.45v-1.475A4.917,4.917,0,0,1,674.272,308.746Zm3.95,1.118h1.3v-6.37h1.362v-1.045h-1.362v-2.99h-1.3v2.99H676.86v1.045h1.362v6.37Zm4.967-10.324a0.9,0.9,0,0,0,.66.267,0.892,0.892,0,0,0,.656-0.267,0.879,0.879,0,0,0,.268-0.648,0.913,0.913,0,0,0-.272-0.665,0.884,0.884,0,0,0-.652-0.275,0.9,0.9,0,0,0-.66.271A0.933,0.933,0,0,0,683.189,299.54Zm1.308,10.324v-7.415h-1.28v7.415h1.28Zm5.032-5.677a2.543,2.543,0,0,1,1.908-.814,2.512,2.512,0,0,1,1.888.814,2.933,2.933,0,0,1,0,3.979,2.513,2.513,0,0,1-1.888.815,2.549,2.549,0,0,1-1.9-.815A2.916,2.916,0,0,1,689.529,304.187Zm-1.828,3.521a4.054,4.054,0,0,0,2.184,2.168,4.006,4.006,0,0,0,1.552.3,3.913,3.913,0,0,0,1.528-.308,4.181,4.181,0,0,0,1.325-.891,3.837,3.837,0,0,0,.875-1.277,3.916,3.916,0,0,0,.3-1.527,3.982,3.982,0,0,0-.3-1.536,3.805,3.805,0,0,0-.875-1.284,4.147,4.147,0,0,0-1.317-.875,3.982,3.982,0,0,0-1.536-.3,4.107,4.107,0,0,0-1.556.295,3.977,3.977,0,0,0-1.3.863,3.9,3.9,0,0,0-.876,1.293,4,4,0,0,0-.3,1.544A3.906,3.906,0,0,0,687.7,307.708Zm11.827,2.156v-3.833a5.625,5.625,0,0,1,.1-1.3,1.813,1.813,0,0,1,.336-0.664,2.057,2.057,0,0,1,.774-0.588,2.535,2.535,0,0,1,1.034-.206,1.831,1.831,0,0,1,1.462.547,2.5,2.5,0,0,1,.474,1.673v4.368h1.3v-5.049a2.533,2.533,0,0,0-.738-1.936,2.863,2.863,0,0,0-2.05-.7,3.341,3.341,0,0,0-1.556.348,3.1,3.1,0,0,0-1.15,1.062v-1.143h-1.24v7.415h1.256Zm9.278-.126a0.944,0.944,0,0,0,.684.272,0.969,0.969,0,0,0,.7-0.272,0.89,0.89,0,0,0,.284-0.668,0.918,0.918,0,0,0-.288-0.685,0.961,0.961,0,0,0-.693-0.28,0.97,0.97,0,0,0-.964.965A0.893,0.893,0,0,0,708.806,309.738ZM409.188,334.3a5.04,5.04,0,0,1-2.653-2.667,4.846,4.846,0,0,1-.36-1.863,4.867,4.867,0,0,1,1.427-3.485,4.655,4.655,0,0,1,1.565-1.061,4.848,4.848,0,0,1,1.874-.365,4.865,4.865,0,0,1,4.5,3.014,4.951,4.951,0,0,1,.369,1.9,4.93,4.93,0,0,1-3.013,4.525A4.868,4.868,0,0,1,409.188,334.3Zm7.723-6.941a5.971,5.971,0,0,0-1.37-2.006,6.281,6.281,0,0,0-2.064-1.337,6.519,6.519,0,0,0-4.861,0,6.291,6.291,0,0,0-2.059,1.337,6.046,6.046,0,0,0-1.383,2.014,6.3,6.3,0,0,0,0,4.793,6.061,6.061,0,0,0,1.383,2.01,6.454,6.454,0,0,0,8.984,0,5.985,5.985,0,0,0,1.37-2A6.373,6.373,0,0,0,416.911,327.362Zm3.335,0.9v4.328a3.454,3.454,0,0,0,.859,2.536,4.1,4.1,0,0,0,5.04,0,3.452,3.452,0,0,0,.859-2.54v-4.328h-1.3v3.647a3.941,3.941,0,0,1-.465,2.241,2.332,2.332,0,0,1-3.193-.008,3.887,3.887,0,0,1-.474-2.233v-3.647h-1.329Zm11.316,7.415v-3.614a3.857,3.857,0,0,1,.5-2.184,1.712,1.712,0,0,1,1.507-.725,2.053,2.053,0,0,1,.373.036,3.191,3.191,0,0,1,.413.11l0.422-1.143a2.62,2.62,0,0,0-.422-0.109,2.486,2.486,0,0,0-.437-0.037,2.342,2.342,0,0,0-1.4.413,3.922,3.922,0,0,0-1.086,1.378v-1.54h-1.127v7.415h1.257Zm17.194-7.415h-1.427l-2.236,5.179-2.229-5.179h-1.426l3.671,7.877Zm2.945,2.869a2.167,2.167,0,0,1,2.252-2.042,2.312,2.312,0,0,1,1.609.531,2.13,2.13,0,0,1,.652,1.511H451.7Zm5.875,0.778a4.107,4.107,0,0,0-.961-2.877,3.35,3.35,0,0,0-2.605-1.053,3.485,3.485,0,0,0-2.666,1.11,4.009,4.009,0,0,0-1.037,2.852,4.123,4.123,0,0,0,1.045,2.934A3.577,3.577,0,0,0,454.091,336a3.71,3.71,0,0,0,3.436-2.026l-0.964-.648a3.515,3.515,0,0,1-1.062,1.212,2.368,2.368,0,0,1-1.345.4,2.311,2.311,0,0,1-1.775-.734,2.714,2.714,0,0,1-.68-1.924v-0.114h5.875v-0.251Zm4.014,3.768v-3.614a3.856,3.856,0,0,1,.5-2.184,1.711,1.711,0,0,1,1.507-.725,2.053,2.053,0,0,1,.373.036,3.234,3.234,0,0,1,.413.11l0.421-1.143a2.609,2.609,0,0,0-.421-0.109,2.505,2.505,0,0,0-.438-0.037,2.344,2.344,0,0,0-1.4.413,3.945,3.945,0,0,0-1.086,1.378v-1.54h-1.126v7.415h1.256Zm5.761-.073a3.677,3.677,0,0,0,1.763.389,2.875,2.875,0,0,0,1.957-.652,2.156,2.156,0,0,0,.749-1.706,1.831,1.831,0,0,0-.474-1.317,4.076,4.076,0,0,0-1.681-.887c-0.109-.033-0.254-0.078-0.438-0.138q-1.474-.462-1.475-1.142a1.019,1.019,0,0,1,.353-0.8,1.324,1.324,0,0,1,.911-0.312,1.892,1.892,0,0,1,1.025.276,1.724,1.724,0,0,1,.669.786l1.029-.632a2.214,2.214,0,0,0-.989-1.09A3.334,3.334,0,0,0,469.1,328a2.814,2.814,0,0,0-1.9.624,2.024,2.024,0,0,0-.729,1.613q0,1.4,2.706,2.333l0.211,0.073a2.453,2.453,0,0,1,.9.478,0.875,0.875,0,0,1,.263.649,0.985,0.985,0,0,1-.385.81,1.569,1.569,0,0,1-1.009.308,2.04,2.04,0,0,1-1.11-.3,2.233,2.233,0,0,1-.778-0.887l-1.086.729A2.881,2.881,0,0,0,467.351,335.607Zm7.248-10.251a0.907,0.907,0,0,0,.66.268,0.9,0.9,0,0,0,.657-0.268,0.882,0.882,0,0,0,.267-0.648,0.914,0.914,0,0,0-.271-0.665,0.886,0.886,0,0,0-.653-0.275A0.931,0.931,0,0,0,474.6,325.356Zm1.309,10.324v-7.415h-1.281v7.415h1.281ZM480.939,330a2.545,2.545,0,0,1,1.908-.815,2.515,2.515,0,0,1,1.889.815,2.931,2.931,0,0,1,0,3.978,2.515,2.515,0,0,1-1.889.815,2.549,2.549,0,0,1-1.9-.815A2.915,2.915,0,0,1,480.939,330Zm-1.827,3.521a4.1,4.1,0,0,0,.875,1.3,4.053,4.053,0,0,0,1.309.871,4,4,0,0,0,1.551.3,3.9,3.9,0,0,0,1.528-.308,4.169,4.169,0,0,0,1.325-.891,3.833,3.833,0,0,0,.875-1.276,3.924,3.924,0,0,0,.3-1.528,3.982,3.982,0,0,0-.3-1.536,3.815,3.815,0,0,0-.875-1.284,4.141,4.141,0,0,0-1.317-.875,3.975,3.975,0,0,0-1.536-.3,4.1,4.1,0,0,0-1.555.3,3.955,3.955,0,0,0-1.3.863,3.882,3.882,0,0,0-.875,1.292,4,4,0,0,0-.3,1.544A3.912,3.912,0,0,0,479.112,333.525Zm11.826,2.155v-3.833a5.667,5.667,0,0,1,.1-1.3,1.8,1.8,0,0,1,.337-0.665,2.029,2.029,0,0,1,.774-0.587,2.515,2.515,0,0,1,1.033-.207,1.834,1.834,0,0,1,1.463.547,2.5,2.5,0,0,1,.474,1.673v4.368h1.3v-5.048a2.539,2.539,0,0,0-.737-1.937,2.865,2.865,0,0,0-2.05-.7,3.338,3.338,0,0,0-1.556.348,3.12,3.12,0,0,0-1.151,1.062v-1.143h-1.24v7.415h1.256ZM507.01,330a2.544,2.544,0,0,1,1.908-.815,2.517,2.517,0,0,1,1.889.815,2.934,2.934,0,0,1,0,3.978,2.517,2.517,0,0,1-1.889.815,2.549,2.549,0,0,1-1.9-.815A2.915,2.915,0,0,1,507.01,330Zm-1.827,3.521a4.048,4.048,0,0,0,2.184,2.167,4,4,0,0,0,1.551.3,3.9,3.9,0,0,0,1.528-.308,4.181,4.181,0,0,0,1.325-.891,3.833,3.833,0,0,0,.875-1.276,3.924,3.924,0,0,0,.3-1.528,3.982,3.982,0,0,0-.3-1.536,3.815,3.815,0,0,0-.875-1.284,4.164,4.164,0,0,0-1.317-.875,3.979,3.979,0,0,0-1.536-.3,4.107,4.107,0,0,0-1.556.3,3.961,3.961,0,0,0-1.3.863,3.867,3.867,0,0,0-.875,1.292,4,4,0,0,0-.3,1.544A3.912,3.912,0,0,0,505.183,333.525Zm12.191,2.155v-6.369h1.945v-1.046h-1.978v-1.977a4.323,4.323,0,0,1,.211-1.75,0.817,0.817,0,0,1,.77-0.357,2,2,0,0,1,.506.065,2.051,2.051,0,0,1,.491.2v-1.313a2.76,2.76,0,0,0-.523-0.13,3.878,3.878,0,0,0-.571-0.04,1.923,1.923,0,0,0-1.674.652,4.645,4.645,0,0,0-.466,2.5v2.147h-1.426v1.046h1.426v6.369h1.289Zm11.619-5.721a2.326,2.326,0,0,1,1.823-.737,2.162,2.162,0,0,1,1.771.778,3.3,3.3,0,0,1,.636,2.147,2.71,2.71,0,0,1-.636,1.912,2.26,2.26,0,0,1-1.747.689,2.352,2.352,0,0,1-1.823-.753,2.855,2.855,0,0,1-.689-2A2.93,2.93,0,0,1,528.993,329.959Zm-0.633,9.335v-4.959a3.079,3.079,0,0,0,1.111,1.244,2.993,2.993,0,0,0,1.6.417,3.225,3.225,0,0,0,2.549-1.082,4.267,4.267,0,0,0,.952-2.921,4.2,4.2,0,0,0-.973-2.9A3.28,3.28,0,0,0,531.018,328a2.965,2.965,0,0,0-1.572.429,3.136,3.136,0,0,0-1.134,1.232v-1.394H527.1v11.029h1.256Zm10.425-3.614V323.12h-1.3v12.56h1.3Zm8.516-1.657a2.28,2.28,0,0,1-1.779.709A2.308,2.308,0,0,1,543.7,334a3.033,3.033,0,0,1-.644-2.075,2.822,2.822,0,0,1,.64-1.969,2.535,2.535,0,0,1,3.57.061,2.92,2.92,0,0,1,.684,2.022A2.837,2.837,0,0,1,547.3,334.023Zm0.612-5.758v1.394a3.019,3.019,0,0,0-1.106-1.244A3.051,3.051,0,0,0,545.19,328a3.2,3.2,0,0,0-2.536,1.082,4.263,4.263,0,0,0-.949,2.913,4.209,4.209,0,0,0,.977,2.905,3.278,3.278,0,0,0,2.573,1.1,2.914,2.914,0,0,0,1.552-.425,3.244,3.244,0,0,0,1.138-1.236v1.345h1.232v-7.415h-1.264Zm5.757,11.029,4.975-11.029h-1.394l-2.285,5.324-2.155-5.324h-1.467l2.909,6.686-2.01,4.343h1.427Zm7.041-13.938a0.907,0.907,0,0,0,.66.268,0.9,0.9,0,0,0,.657-0.268,0.882,0.882,0,0,0,.267-0.648,0.914,0.914,0,0,0-.271-0.665,0.886,0.886,0,0,0-.653-0.275A0.931,0.931,0,0,0,560.711,325.356Zm1.309,10.324v-7.415h-1.281v7.415h1.281Zm4.76,0v-3.833a5.609,5.609,0,0,1,.1-1.3,1.787,1.787,0,0,1,.336-0.665,2.029,2.029,0,0,1,.774-0.587,2.518,2.518,0,0,1,1.033-.207,1.833,1.833,0,0,1,1.463.547,2.5,2.5,0,0,1,.474,1.673v4.368h1.3v-5.048a2.536,2.536,0,0,0-.738-1.937,2.863,2.863,0,0,0-2.05-.7,3.338,3.338,0,0,0-1.556.348,3.128,3.128,0,0,0-1.151,1.062v-1.143h-1.239v7.415h1.256Zm13.848-1.7a2.268,2.268,0,0,1-1.779.718,2.306,2.306,0,0,1-1.827-.73,3.029,3.029,0,0,1-.644-2.074,2.822,2.822,0,0,1,.64-1.969,2.544,2.544,0,0,1,3.573.056,2.9,2.9,0,0,1,.681,2.01A2.872,2.872,0,0,1,580.628,333.982Zm0.612-5.717v1.378a2.911,2.911,0,0,0-1.1-1.228,3.1,3.1,0,0,0-1.621-.417,3.227,3.227,0,0,0-2.537,1.066,4.8,4.8,0,0,0,.029,5.765,3.293,3.293,0,0,0,2.573,1.086,2.948,2.948,0,0,0,1.564-.425,3.14,3.14,0,0,0,1.126-1.22v1.248a5.639,5.639,0,0,1-.073,1.045,1.9,1.9,0,0,1-.243.641,1.787,1.787,0,0,1-.822.733,3.1,3.1,0,0,1-1.3.247,2.574,2.574,0,0,1-1.629-.454,1.543,1.543,0,0,1-.575-1.288v-0.1H575.2a2.766,2.766,0,0,0,.985,2.18,4.052,4.052,0,0,0,2.63.769,4.993,4.993,0,0,0,1.722-.275,3.22,3.22,0,0,0,1.268-.835,2.423,2.423,0,0,0,.535-0.916,6.338,6.338,0,0,0,.162-1.717v-7.286H581.24Zm10.423-2.909a0.908,0.908,0,0,0,.661.268,0.893,0.893,0,0,0,.656-0.268,0.883,0.883,0,0,0,.268-0.648,0.915,0.915,0,0,0-.272-0.665,0.884,0.884,0,0,0-.652-0.275A0.931,0.931,0,0,0,591.663,325.356Zm1.309,10.324v-7.415h-1.28v7.415h1.28Zm3.7,0h1.3v-6.369h1.362v-1.046h-1.362v-2.99h-1.3v2.99h-1.362v1.046h1.362v6.369Zm15.184-1.118a3.24,3.24,0,0,1-1.126.2,2.557,2.557,0,0,1-1.9-.769,2.62,2.62,0,0,1-.757-1.913,2.869,2.869,0,0,1,.753-2.078,2.651,2.651,0,0,1,2-.782,3.422,3.422,0,0,1,1.053.166,4.172,4.172,0,0,1,1,.482v-1.362a5,5,0,0,0-1.106-.38,5.535,5.535,0,0,0-1.2-.13,3.687,3.687,0,0,0-2.78,1.13,4.033,4.033,0,0,0-1.086,2.914,3.953,3.953,0,0,0,1.05,2.864,3.663,3.663,0,0,0,2.767,1.09,5.828,5.828,0,0,0,1.357-.15,4.033,4.033,0,0,0,1.131-.449v-1.475A4.947,4.947,0,0,1,611.855,334.562ZM617.138,330a2.544,2.544,0,0,1,1.908-.815,2.513,2.513,0,0,1,1.888.815,2.931,2.931,0,0,1,0,3.978,2.513,2.513,0,0,1-1.888.815,2.549,2.549,0,0,1-1.9-.815A2.915,2.915,0,0,1,617.138,330Zm-1.828,3.521a4.1,4.1,0,0,0,.876,1.3,4.049,4.049,0,0,0,1.308.871,4.006,4.006,0,0,0,1.552.3,3.9,3.9,0,0,0,1.528-.308,4.181,4.181,0,0,0,1.325-.891,3.833,3.833,0,0,0,.875-1.276,3.924,3.924,0,0,0,.3-1.528,3.982,3.982,0,0,0-.3-1.536,3.815,3.815,0,0,0-.875-1.284,4.164,4.164,0,0,0-1.317-.875,3.982,3.982,0,0,0-1.536-.3,4.1,4.1,0,0,0-1.556.3,3.961,3.961,0,0,0-1.3.863,3.885,3.885,0,0,0-.876,1.292,4,4,0,0,0-.3,1.544A3.911,3.911,0,0,0,615.31,333.525Zm12.1-3.521a2.548,2.548,0,0,1,1.909-.815,2.515,2.515,0,0,1,1.888.815,2.931,2.931,0,0,1,0,3.978,2.515,2.515,0,0,1-1.888.815,2.55,2.55,0,0,1-1.9-.815A2.915,2.915,0,0,1,627.408,330Zm-1.827,3.521a4.048,4.048,0,0,0,2.184,2.167,4.006,4.006,0,0,0,1.552.3,3.894,3.894,0,0,0,1.527-.308,4.169,4.169,0,0,0,1.325-.891,3.819,3.819,0,0,0,.875-1.276,3.924,3.924,0,0,0,.3-1.528,3.982,3.982,0,0,0-.3-1.536,3.8,3.8,0,0,0-.875-1.284,4.141,4.141,0,0,0-1.317-.875,3.974,3.974,0,0,0-1.535-.3,4.1,4.1,0,0,0-1.556.3,3.976,3.976,0,0,0-1.3.863,3.882,3.882,0,0,0-.875,1.292,4,4,0,0,0-.3,1.544A3.912,3.912,0,0,0,625.581,333.525Zm11.932,2.155V323.12h-1.3v12.56h1.3Zm3.945-.125a0.951,0.951,0,0,0,.685.271,0.973,0.973,0,0,0,.7-0.271,0.89,0.89,0,0,0,.284-0.669,0.919,0.919,0,0,0-.288-0.685,0.96,0.96,0,0,0-.693-0.279,0.966,0.966,0,0,0-.964.964A0.9,0.9,0,0,0,641.458,335.555Z"/>
  <path id="THE_LINEN_SHOP" data-name="THE LINEN SHOP" class="cls-1" d="M421.745,259.256V227.824h9.221V218.1H401.305v9.728h9.222v31.432h11.218Zm40.316,0V242.5h14.957v16.756h11.246V218.1H477.018v16H462.061v-16H450.843v41.16h11.218Zm74.56,0v-9.221H522.339V243.09h13.467v-8.828H522.339v-7.141h14.282V218.1H511.4v41.16h25.219Zm79.4,0v-9.615H602.072V218.1H590.854v41.16h25.163Zm31.488,0V218.1h-11.33v41.16h11.33Zm34.272,0V238.929q0-1.545-.155-3.542T681.13,230.8q1.209,2.643,2.236,4.6a23.624,23.624,0,0,0,1.5,2.6l15.547,21.254h10.768V218.1H700.417v20.327q0,1.547.155,3.543t0.492,4.554q-1.237-2.7-2.264-4.653a29.287,29.287,0,0,0-1.476-2.6L681.777,218.1H670.953v41.16h10.824Zm77.85,0v-9.221H745.344V243.09h13.467v-8.828H745.344v-7.141h14.283V218.1H734.408v41.16h25.219Zm32.641,0V238.929q0-1.545-.155-3.542t-0.492-4.583q1.209,2.643,2.235,4.6a23.624,23.624,0,0,0,1.5,2.6l15.548,21.254h10.768V218.1H810.908v20.327q0,1.547.154,3.543t0.492,4.554q-1.237-2.7-2.263-4.653a29.287,29.287,0,0,0-1.476-2.6L792.268,218.1H781.444v41.16h10.824Zm81.813-4.948a22.161,22.161,0,0,0,6.79,4.583,20.279,20.279,0,0,0,7.83,1.462q7.17,0,11.471-3.979a13.66,13.66,0,0,0,4.3-10.528,13.912,13.912,0,0,0-.759-4.71,10.055,10.055,0,0,0-2.221-3.641q-2.165-2.22-9.025-4.076l-0.506-.141a12,12,0,0,1-4.287-1.771,3.06,3.06,0,0,1-1.111-2.474,3,3,0,0,1,1.265-2.488,5.257,5.257,0,0,1,3.29-.97,10.387,10.387,0,0,1,3.978.829,14.745,14.745,0,0,1,3.922,2.46l3.514-8.069a20.874,20.874,0,0,0-5.777-2.769,22.381,22.381,0,0,0-6.452-.914,14.33,14.33,0,0,0-10.248,3.725,12.64,12.64,0,0,0-3.95,9.63,9.937,9.937,0,0,0,2.5,7.169q2.5,2.614,8.547,4.245,4.413,1.182,5.665,2.292a4.007,4.007,0,0,1,1.251,3.163,3.821,3.821,0,0,1-1.448,3.064,5.575,5.575,0,0,1-3.7,1.209,9.615,9.615,0,0,1-4.85-1.406,20.361,20.361,0,0,1-4.934-4.245Zm62.3,4.948V242.5H951.34v16.756h11.246V218.1H951.34v16H936.383v-16H925.166v41.16h11.217Zm89.957-28.817a21.253,21.253,0,0,0-4.74-6.945,21.768,21.768,0,0,0-7.16-4.681,22.52,22.52,0,0,0-16.893,0,21.54,21.54,0,0,0-7.1,4.681,20.915,20.915,0,0,0-4.822,6.959,21.776,21.776,0,0,0,0,16.6,20.869,20.869,0,0,0,4.822,6.973,21.525,21.525,0,0,0,7.1,4.681,22.4,22.4,0,0,0,16.853,0,22.454,22.454,0,0,0,7.2-4.681A21.608,21.608,0,0,0,1026.34,230.439Zm-28.1,17.009a13.909,13.909,0,0,1,.042-17.333,10.307,10.307,0,0,1,15.392.014,13.708,13.708,0,0,1,.04,17.291A10.47,10.47,0,0,1,998.236,247.448Zm61.684-1.771h3.94a34.467,34.467,0,0,0,7.56-.591,10.935,10.935,0,0,0,4.1-1.94,11.287,11.287,0,0,0,3.49-4.6,16.506,16.506,0,0,0,1.18-6.481,16.092,16.092,0,0,0-1.19-6.283,12.182,12.182,0,0,0-3.48-4.71,11.336,11.336,0,0,0-4.72-2.305,47.02,47.02,0,0,0-9.67-.675H1049.4v41.16h10.52V245.677Zm0-18.725h2.25q3.99,0,5.57,1.1a4.19,4.19,0,0,1,1.57,3.683,4.265,4.265,0,0,1-1.6,3.781c-1.07.741-2.96,1.111-5.65,1.111h-2.14v-9.672Z"/>
  <path id="A_FRESH_PERSPECTIVE" data-name="A FRESH PERSPECTIVE" class="cls-2" d="M50.531,32.3q0.146-.506.286-1.056T51.1,30.088q0.213,0.865.348,1.415t0.213,0.8l1.673,5.424H48.88ZM47.06,43.868l0.854-2.942h6.368l0.831,2.942h4.459L53.888,27.427H48.273L42.6,43.868H47.06Zm48.65,0V37.411h5.379V33.884H95.711V31.032h5.705V27.427H91.342V43.868h4.369Zm23.842,0V37.433l3.773,6.435h5.065l-4.481-6.626a4.571,4.571,0,0,0,2.735-1.589,4.886,4.886,0,0,0,.938-3.105,5.477,5.477,0,0,0-.478-2.3,4.435,4.435,0,0,0-1.364-1.718,4.9,4.9,0,0,0-1.87-.848,19.536,19.536,0,0,0-3.835-.253h-4.683V43.868h4.2Zm0-12.994h0.9a3.284,3.284,0,0,1,2.1.522,2.181,2.181,0,0,1,.623,1.758,1.8,1.8,0,0,1-.668,1.55,3.594,3.594,0,0,1-2.117.494h-0.831V30.875Zm32.119,12.994V40.185h-5.7V37.411h5.379V33.884h-5.379V31.032h5.7V27.427H141.6V43.868h10.074Zm13.173-1.977a8.863,8.863,0,0,0,2.712,1.831,8.1,8.1,0,0,0,3.128.584,6.48,6.48,0,0,0,4.582-1.589,5.454,5.454,0,0,0,1.718-4.206,5.559,5.559,0,0,0-.3-1.881,4.017,4.017,0,0,0-.887-1.454,8.4,8.4,0,0,0-3.6-1.629l-0.2-.056a4.808,4.808,0,0,1-1.713-.707,1.221,1.221,0,0,1-.443-0.988,1.2,1.2,0,0,1,.5-0.994,2.1,2.1,0,0,1,1.314-.387,4.145,4.145,0,0,1,1.589.331,5.9,5.9,0,0,1,1.567.983l1.4-3.223A8.351,8.351,0,0,0,173.9,27.4a8.944,8.944,0,0,0-2.578-.365,5.723,5.723,0,0,0-4.093,1.488,5.049,5.049,0,0,0-1.578,3.846,3.972,3.972,0,0,0,1,2.864,7.384,7.384,0,0,0,3.414,1.7,6.323,6.323,0,0,1,2.263.915,1.6,1.6,0,0,1,.5,1.263,1.527,1.527,0,0,1-.578,1.224,2.227,2.227,0,0,1-1.477.483,3.839,3.839,0,0,1-1.937-.562,8.117,8.117,0,0,1-1.971-1.7Zm30.637,1.977V37.175h5.975v6.693h4.492V27.427h-4.492v6.39h-5.975v-6.39H191V43.868h4.481Zm48.358-5.424h1.573a13.764,13.764,0,0,0,3.021-.236,4.38,4.38,0,0,0,1.639-.775,4.512,4.512,0,0,0,1.393-1.836,6.621,6.621,0,0,0,.471-2.589,6.386,6.386,0,0,0-.477-2.51,4.844,4.844,0,0,0-1.387-1.881,4.54,4.54,0,0,0-1.887-.921,18.774,18.774,0,0,0-3.863-.27H239.64V43.868h4.2V38.444Zm0-7.48h0.9a4.1,4.1,0,0,1,2.223.438,1.664,1.664,0,0,1,.629,1.471,1.706,1.706,0,0,1-.64,1.511,4.172,4.172,0,0,1-2.257.444H243.84V30.964Zm31.951,12.9V40.185h-5.7V37.411h5.379V33.884h-5.379V31.032h5.7V27.427H265.717V43.868h10.074Zm18.665,0V37.433l3.773,6.435h5.065l-4.481-6.626a4.571,4.571,0,0,0,2.735-1.589,4.886,4.886,0,0,0,.938-3.105,5.462,5.462,0,0,0-.478-2.3,4.435,4.435,0,0,0-1.364-1.718,4.9,4.9,0,0,0-1.87-.848,19.536,19.536,0,0,0-3.835-.253h-4.683V43.868h4.2Zm0-12.994h0.9a3.284,3.284,0,0,1,2.1.522,2.181,2.181,0,0,1,.623,1.758,1.8,1.8,0,0,1-.668,1.55,3.594,3.594,0,0,1-2.117.494h-0.831V30.875ZM315.21,41.892a8.84,8.84,0,0,0,2.712,1.831,8.1,8.1,0,0,0,3.128.584,6.482,6.482,0,0,0,4.582-1.589,5.458,5.458,0,0,0,1.718-4.206,5.559,5.559,0,0,0-.3-1.881,4.017,4.017,0,0,0-.887-1.454,8.4,8.4,0,0,0-3.605-1.629l-0.2-.056a4.792,4.792,0,0,1-1.712-.707A1.222,1.222,0,0,1,320.2,31.8,1.2,1.2,0,0,1,320.7,30.8a2.1,2.1,0,0,1,1.314-.387,4.149,4.149,0,0,1,1.589.331,5.892,5.892,0,0,1,1.566.983l1.4-3.223a8.324,8.324,0,0,0-2.308-1.106,8.932,8.932,0,0,0-2.577-.365,5.726,5.726,0,0,0-4.094,1.488,5.049,5.049,0,0,0-1.578,3.846,3.973,3.973,0,0,0,1,2.864,7.373,7.373,0,0,0,3.414,1.7,6.332,6.332,0,0,1,2.263.915,1.6,1.6,0,0,1,.5,1.263,1.525,1.525,0,0,1-.579,1.224,2.224,2.224,0,0,1-1.476.483,3.846,3.846,0,0,1-1.938-.562,8.154,8.154,0,0,1-1.971-1.7Zm30.356-3.448h1.572a13.764,13.764,0,0,0,3.021-.236,4.384,4.384,0,0,0,1.64-.775,4.5,4.5,0,0,0,1.392-1.836,6.6,6.6,0,0,0,.472-2.589,6.386,6.386,0,0,0-.477-2.51,4.864,4.864,0,0,0-1.387-1.881,4.552,4.552,0,0,0-1.887-.921,18.774,18.774,0,0,0-3.863-.27h-4.683V43.868h4.2V38.444Zm0-7.48h0.9a4.1,4.1,0,0,1,2.224.438,1.666,1.666,0,0,1,.629,1.471,1.708,1.708,0,0,1-.64,1.511,4.176,4.176,0,0,1-2.258.444h-0.853V30.964Zm31.95,12.9V40.185h-5.705V37.411h5.38V33.884h-5.38V31.032h5.705V27.427H367.443V43.868h10.073Zm24.258-16.576a8.948,8.948,0,0,0-2.134-.258,8.594,8.594,0,0,0-3.262.6,7.689,7.689,0,0,0-2.634,1.8,8.4,8.4,0,0,0-1.847,2.8,9.237,9.237,0,0,0-.612,3.431,9.085,9.085,0,0,0,.966,4.223,8.267,8.267,0,0,0,2.807,3.111,7.1,7.1,0,0,0,2.1.971,9.175,9.175,0,0,0,2.487.32,8.953,8.953,0,0,0,2.134-.258,10.731,10.731,0,0,0,2.123-.775V38.343a6.653,6.653,0,0,1-1.836,1.511,4.179,4.179,0,0,1-1.96.477,4.064,4.064,0,0,1-3.105-1.3,4.61,4.61,0,0,1-1.219-3.279,4.93,4.93,0,0,1,1.2-3.442,4.024,4.024,0,0,1,3.128-1.32,4.181,4.181,0,0,1,1.96.477,6.741,6.741,0,0,1,1.836,1.5v-4.9A10.744,10.744,0,0,0,401.774,27.292Zm23,16.576V31.313h3.684V27.427H416.61v3.886h3.683V43.868h4.481Zm22.012,0V27.427H442.26V43.868h4.526Zm23.236,0,6.895-16.441h-4.761l-3.269,9.2c-0.052.157-.131,0.438-0.235,0.842s-0.218.857-.337,1.359q-0.225-.944-0.365-1.5t-0.186-.7l-3.29-9.2h-4.762l6.9,16.441h3.414Zm29.805,0V40.185h-5.7V37.411h5.38V33.884h-5.38V31.032h5.7V27.427H489.754V43.868h10.073Z"/>
</svg>
